<svg version="1.1" xmlns="http://www.w3.org/2000/svg" viewBox="0 0 700 200">
<path d="M0 0 C-0.61118369 3.56523819 -1.62022499 6.66273931 -3 10 C-1.96359375 9.6390625 -0.9271875 9.278125 0.140625 8.90625 C1.51030736 8.4371807 2.88010514 7.96844834 4.25 7.5 C4.93191406 7.26152344 5.61382812 7.02304688 6.31640625 6.77734375 C9.76413003 5.60578713 12.31702904 5 16 5 C14.67074516 16.91012337 13.05849339 30.61666684 3.75390625 39.03125 C0.72130424 41.19923782 -2.13589274 42.45060833 -5.625 43.75 C-7.31496094 44.39195313 -7.31496094 44.39195313 -9.0390625 45.046875 C-12 46 -12 46 -15 46 C-15.0825 46.886875 -15.165 47.77375 -15.25 48.6875 C-15.9399231 53.69201684 -17.61050056 58.41467967 -19.16015625 63.20703125 C-20.0959874 65.83312946 -20.0959874 65.83312946 -20 68 C-19.59587891 66.15921875 -19.59587891 66.15921875 -19.18359375 64.28125 C-18.1026183 61.40541149 -17.38262101 60.24027169 -14.75439453 58.58984375 C-11.88907559 57.40852353 -9.02048589 56.42472589 -6.0625 55.5 C-5.06025391 55.15453125 -4.05800781 54.8090625 -3.02539062 54.453125 C1.21783691 53.02644943 4.48451183 52 9 52 C8.32834417 58.90702786 6.23647003 65.32947869 4.1875 71.9375 C3.84396484 73.07896484 3.50042969 74.22042969 3.14648438 75.39648438 C-0.00084889 85.61793631 -2.94328244 93.75746131 -12 100 C-20.05693839 103.85646714 -28.59446265 106.81266155 -37 109.8125 C-38.08539063 110.21919922 -39.17078125 110.62589844 -40.2890625 111.04492188 C-47.72618984 113.68519083 -54.12435755 114.53479869 -62 114 C-62.28875 114.9075 -62.5775 115.815 -62.875 116.75 C-65.157323 120.24061164 -65.76300469 120.59351331 -69.46875 121.96875 C-70.3644873 122.30487305 -71.26022461 122.64099609 -72.18310547 122.98730469 C-73.11268066 123.32149414 -74.04225586 123.65568359 -75 124 C-75.87672363 124.32129883 -76.75344727 124.64259766 -77.65673828 124.97363281 C-80.30388685 125.92721518 -82.96165037 126.84274786 -85.625 127.75 C-86.95917969 128.22373047 -86.95917969 128.22373047 -88.3203125 128.70703125 C-94.39383789 130.77024355 -100.27409248 132.49036301 -106.5 130 C-106.995 129.67 -107.49 129.34 -108 129 C-109.11375 130.1446875 -109.11375 130.1446875 -110.25 131.3125 C-114.98286909 135.93780388 -119.86424732 138.53295918 -125.8125 141.3125 C-127.07694946 141.90526733 -127.07694946 141.90526733 -128.36694336 142.51000977 C-138.97408144 147.43557497 -149.36096069 152.19917144 -161 154 C-161.91523438 154.19464844 -162.83046875 154.38929688 -163.7734375 154.58984375 C-171.01975427 156.10859233 -177.21090738 157.01698103 -183.8125 152.9375 C-187.67437278 150.35986045 -188.6058922 146.21859896 -190 142 C-190.40726318 142.82725586 -190.81452637 143.65451172 -191.23413086 144.50683594 C-192.77234389 147.59758306 -194.33458471 150.67355862 -195.91430664 153.74316406 C-196.59023192 155.06888724 -197.25646866 156.39960009 -197.91235352 157.73535156 C-204.07218096 170.25144742 -204.07218096 170.25144742 -209.33984375 172.65625 C-210.88158128 173.14274869 -212.43626774 173.58966232 -214 174 C-215.74509921 174.63265033 -217.48721081 175.27359006 -219.2265625 175.921875 C-221.02443505 176.53597391 -222.82393756 177.14532054 -224.625 177.75 C-225.97851562 178.22373047 -225.97851562 178.22373047 -227.359375 178.70703125 C-233.32949712 180.71737849 -238.73495259 182.37857557 -244.8125 179.8125 C-248.70626752 176.58623548 -249.25930987 172.30259192 -249.86962891 167.46289062 C-250.00962311 166.37826538 -250.14961731 165.29364014 -250.29385376 164.17614746 C-250.43664764 163.0145813 -250.57944153 161.85301514 -250.7265625 160.65625 C-250.87910492 159.45440063 -251.03164734 158.25255127 -251.18881226 157.01428223 C-251.50958083 154.47622897 -251.82710085 151.93776333 -252.14160156 149.39892578 C-252.62330654 145.51365888 -253.11548398 141.62982843 -253.609375 137.74609375 C-253.9198888 135.27872352 -254.22980478 132.81127798 -254.5390625 130.34375 C-254.68590485 129.18218384 -254.83274719 128.02061768 -254.98403931 126.82385254 C-255.11772919 125.73922729 -255.25141907 124.65460205 -255.38916016 123.53710938 C-255.50748199 122.58622437 -255.62580383 121.63533936 -255.74771118 120.65563965 C-255.98918707 118.11381894 -256 115.55326519 -256 113 C-261.445 113.99 -261.445 113.99 -267 115 C-266.40542915 111.97309386 -265.718976 108.99893733 -265 106 C-264.87061035 105.36771484 -264.7412207 104.73542969 -264.60791016 104.08398438 C-262.0262751 91.72714135 -262.0262751 91.72714135 -257.77734375 88.10546875 C-255.24877587 87.01763883 -252.77392993 86.229352 -250.10400391 85.56884766 C-247.55575708 84.87989255 -245.09489852 84.01455441 -242.60546875 83.13671875 C-240.65440737 82.46393333 -238.70257661 81.79337513 -236.75 81.125 C-235.34826538 80.63954712 -235.34826538 80.63954712 -233.91821289 80.14428711 C-228.10609671 78.26822756 -223.99050259 77.64708874 -218 79 C-215.28763363 80.64169543 -214.31399343 81.97147025 -213.390625 84.99609375 C-212.81412531 87.65585366 -212.39078544 90.30637178 -212 93 C-211.814375 94.24265625 -211.62875 95.4853125 -211.4375 96.765625 C-210.94059894 100.17491836 -210.46243072 103.58588386 -210 107 C-208.96455826 105.09118566 -207.94709915 103.17260796 -206.9375 101.25 C-206.36902344 100.18265625 -205.80054688 99.1153125 -205.21484375 98.015625 C-203.74119727 95.22461522 -203.74119727 95.22461522 -204.49389648 93.12792969 C-205.5381655 88.7372646 -203.39748538 84.20899009 -202.125 80 C-201.86203125 79.00226563 -201.5990625 78.00453125 -201.328125 76.9765625 C-199.18630183 69.90665062 -199.18630183 69.90665062 -196.10473633 67.55151367 C-193.76714746 66.48105811 -191.46730375 65.72058658 -189 65 C-187.26835035 64.37435261 -185.5379036 63.74536716 -183.80859375 63.11328125 C-182.01981519 62.50831085 -180.22942732 61.90807903 -178.4375 61.3125 C-177.54353516 61.00505859 -176.64957031 60.69761719 -175.72851562 60.38085938 C-162.97701463 56.11792159 -162.97701463 56.11792159 -156.625 58 C-153.19631677 60.61233008 -153.0135249 62.90801161 -152 67 C-151.19820313 66.56429687 -150.39640625 66.12859375 -149.5703125 65.6796875 C-133.72303224 57.37873117 -112.49027676 48.00268227 -94.375 53 C-93.59125 53.33 -92.8075 53.66 -92 54 C-91.01 51.36 -90.02 48.72 -89 46 C-89.99 46 -90.98 46 -92 46 C-91.78682201 43.28198068 -91.44069695 40.6871704 -91 38 C-90.79491821 36.45977173 -90.79491821 36.45977173 -90.58569336 34.88842773 C-89.81564442 31.13612423 -88.94592573 28.31362306 -87 25 C-82.23307035 21.98536597 -77.23263572 20.65847496 -71.8125 19.25 C-70.39241948 18.84097532 -68.97376881 18.42695158 -67.55664062 18.0078125 C-64.97838497 17.24802825 -62.39989911 16.52590745 -59.80395508 15.82519531 C-57.11834873 15.27791782 -57.11834873 15.27791782 -56 14 C-48.97157623 13.29715762 -48.97157623 13.29715762 -45.0625 16.125 C-42.83809846 19.22568093 -42.26298363 21.2305679 -42 25 C-37.5626835 21.93613861 -35.73987466 19.60620469 -33.64453125 14.625 C-30.35073318 8.41993917 -26.56166379 6.87890181 -20.02148438 4.83398438 C-18.79751953 4.49689453 -17.57355469 4.15980469 -16.3125 3.8125 C-14.45915039 3.24305664 -14.45915039 3.24305664 -12.56835938 2.66210938 C-3.74440552 0 -3.74440552 0 0 0 Z M-140 97 C-142.57732059 101.96217893 -144.27242664 106.35975956 -144 112 C-140.77545785 111.7068598 -138.54662222 111.38585098 -135.875 109.5 C-132.3113522 104.7484696 -129.21334131 99.09660485 -130 93 C-134.73029552 92.4593948 -136.77688498 93.52895305 -140 97 Z " fill="#E30A16" transform="translate(267,0)"/>
<path d="M0 0 C1.18142578 -0.05994141 1.18142578 -0.05994141 2.38671875 -0.12109375 C3.06734375 -0.15847656 3.74796875 -0.19585937 4.44921875 -0.234375 C7.41592263 0.4175821 8.56354324 1.81369815 10.38671875 4.19140625 C14.10652525 21.04597776 3.82565175 43.48810018 -4.6953125 57.44140625 C-15.61977512 73.10499421 -39.49109782 80.94399345 -57.61328125 84.19140625 C-59.63032787 84.35308804 -61.65284849 84.45531494 -63.67578125 84.50390625 C-64.69800781 84.54128906 -65.72023438 84.57867187 -66.7734375 84.6171875 C-70.35248692 84.08057624 -71.48210505 83.07328046 -73.61328125 80.19140625 C-75.08988354 73.87204899 -73.00405186 66.38468161 -71.61328125 60.19140625 C-71.45730469 59.49160645 -71.30132812 58.79180664 -71.140625 58.07080078 C-67.09369291 40.32050697 -61.39925961 24.44455849 -45.609375 13.91796875 C-39.54089267 10.42087724 -33.11987908 7.75806267 -26.61328125 5.19140625 C-25.53304687 4.76472656 -24.4528125 4.33804688 -23.33984375 3.8984375 C-15.51516008 1.05403149 -8.21399336 0.60162283 0 0 Z M-34.61328125 35.19140625 C-37.19060184 40.15358518 -38.88570789 44.55116581 -38.61328125 50.19140625 C-35.3887391 49.89826605 -33.15990347 49.57725723 -30.48828125 47.69140625 C-26.92463345 42.93987585 -23.82662256 37.2880111 -24.61328125 31.19140625 C-29.34357677 30.65080105 -31.39016623 31.7203593 -34.61328125 35.19140625 Z " fill="#FDF7F7" transform="translate(161.61328125,61.80859375)"/>
<path d="M0 0 C1.23556641 0.01740234 1.23556641 0.01740234 2.49609375 0.03515625 C3.32238281 0.04417969 4.14867188 0.05320312 5 0.0625 C5.63808594 0.07410156 6.27617188 0.08570312 6.93359375 0.09765625 C7.57293977 5.21242444 5.33892922 8.77020003 2.93359375 13.09765625 C2.27359375 13.09765625 1.61359375 13.09765625 0.93359375 13.09765625 C0.66546875 13.94328125 0.39734375 14.78890625 0.12109375 15.66015625 C-1.11426575 19.23619692 -2.54339425 22.63626533 -4.06640625 26.09765625 C-4.72640625 26.09765625 -5.38640625 26.09765625 -6.06640625 26.09765625 C-6.31640381 26.93337158 -6.56640137 27.76908691 -6.82397461 28.63012695 C-8.20427781 32.48244495 -9.99754324 35.99349067 -11.9453125 39.578125 C-12.50350929 40.6201281 -12.50350929 40.6201281 -13.07298279 41.68318176 C-14.25387296 43.88624723 -15.44094473 46.085897 -16.62890625 48.28515625 C-17.81960329 50.49555748 -19.00891971 52.70667392 -20.19554138 54.91926575 C-20.93195995 56.29180978 -21.67085058 57.66303103 -22.41249084 59.03276062 C-23.84630643 61.70035618 -25.10642925 64.21772526 -26.06640625 67.09765625 C-26.72640625 67.09765625 -27.38640625 67.09765625 -28.06640625 67.09765625 C-28.33453125 67.94328125 -28.60265625 68.78890625 -28.87890625 69.66015625 C-30.11426575 73.23619692 -31.54339425 76.63626533 -33.06640625 80.09765625 C-33.72640625 80.09765625 -34.38640625 80.09765625 -35.06640625 80.09765625 C-35.33453125 80.94328125 -35.60265625 81.78890625 -35.87890625 82.66015625 C-36.27078125 83.79453125 -36.66265625 84.92890625 -37.06640625 86.09765625 C-37.45828125 87.29390625 -37.85015625 88.49015625 -38.25390625 89.72265625 C-41.68855092 96.1182015 -49.12869924 98.07505806 -55.69140625 100.34765625 C-56.79742187 100.74984375 -56.79742187 100.74984375 -57.92578125 101.16015625 C-61.75541427 102.50533201 -64.94590486 103.45596072 -69.06640625 103.09765625 C-70.89980106 98.15855385 -71.81184212 93.34566871 -72.56640625 88.16015625 C-72.6945874 87.29479248 -72.82276855 86.42942871 -72.95483398 85.5378418 C-74.1777015 76.93171014 -74.89348926 68.29733954 -75.6015625 59.63671875 C-76.02316089 54.51157974 -76.50397995 49.39676517 -77.06640625 44.28515625 C-77.13738525 43.57979736 -77.20836426 42.87443848 -77.28149414 42.14770508 C-77.68280974 38.19149152 -77.68280974 38.19149152 -80.06640625 35.09765625 C-82.13514659 34.45513275 -82.13514659 34.45513275 -84.06640625 34.09765625 C-83.57140625 31.12765625 -83.57140625 31.12765625 -83.06640625 28.09765625 C-79.34173377 26.75152928 -75.6110075 25.42303354 -71.87890625 24.09765625 C-70.82380859 23.71609375 -69.76871094 23.33453125 -68.68164062 22.94140625 C-67.66005859 22.58046875 -66.63847656 22.21953125 -65.5859375 21.84765625 C-64.64854736 21.5125 -63.71115723 21.17734375 -62.74536133 20.83203125 C-59.9883086 20.07624754 -57.90388613 19.72819747 -55.06640625 20.09765625 C-53.15254069 22.96845459 -52.76867493 23.88821482 -52.39624023 27.12255859 C-52.25115273 28.32928726 -52.25115273 28.32928726 -52.10313416 29.56039429 C-52.00722488 30.42605011 -51.91131561 31.29170593 -51.8125 32.18359375 C-51.70672134 33.07752838 -51.60094269 33.97146301 -51.49195862 34.89248657 C-51.15500216 37.75171415 -50.82903929 40.61206223 -50.50390625 43.47265625 C-50.17312131 46.32582667 -49.84006056 49.1787145 -49.50514221 52.03140259 C-49.29746671 53.80627641 -49.0925474 55.58147547 -48.89073181 57.35702515 C-48.79715897 58.16781525 -48.70358612 58.97860535 -48.60717773 59.81396484 C-48.48632057 60.87627823 -48.48632057 60.87627823 -48.36302185 61.96005249 C-48.0306633 64.35524303 -47.54064248 66.72647512 -47.06640625 69.09765625 C-37.82640625 50.61765625 -28.58640625 32.13765625 -19.06640625 13.09765625 C-20.38640625 13.42765625 -21.70640625 13.75765625 -23.06640625 14.09765625 C-23.12890625 11.34765625 -23.12890625 11.34765625 -22.06640625 8.09765625 C-17.11241885 4.68616038 -10.76939861 3.29493346 -5.03515625 1.7109375 C-2.74129276 0.99638082 -2.4253822 0.11462109 0 0 Z " fill="#FDF5F5" transform="translate(98.06640625,67.90234375)"/>
<path d="M0 0 C-0.45822468 3.46941546 -0.89131683 6.67395049 -2 10 C-0.80761719 9.566875 0.38476562 9.13375 1.61328125 8.6875 C3.1795982 8.12475139 4.74600939 7.56226502 6.3125 7 C7.09818359 6.71382812 7.88386719 6.42765625 8.69335938 6.1328125 C9.45068359 5.86210937 10.20800781 5.59140625 10.98828125 5.3125 C11.68477783 5.06113281 12.38127441 4.80976563 13.09887695 4.55078125 C15 4 15 4 18 4 C17.53884107 9.34944357 17.13585443 13.466381 14 18 C11.14205924 19.44409868 8.15584328 20.20771287 5.0625 21 C3.44369448 21.41659491 1.82999201 21.85363794 0.22265625 22.3125 C-0.49140381 22.49425781 -1.20546387 22.67601563 -1.94116211 22.86328125 C-7.09686086 25.70982855 -8.74545969 31.57180436 -10.32421875 36.90234375 C-10.51595169 37.5431337 -10.70768463 38.18392365 -10.90522766 38.84413147 C-11.30563813 40.18983297 -11.70118561 41.5369903 -12.09204102 42.88549805 C-12.68585633 44.93183578 -13.29569015 46.9728621 -13.90820312 49.01367188 C-15.67828486 54.99584664 -17.22962537 60.78993825 -18 67 C-8.27443058 65.10440307 -8.27443058 65.10440307 0 60 C1.32132038 57.91391541 2.542348 55.78533143 3.765625 53.640625 C5 52 5 52 7.8125 51.5 C8.534375 51.665 9.25625 51.83 10 52 C9.37822527 60.08307145 7.71237135 68.48124798 2.6875 75 C-4.30451794 80.20336219 -11.80680114 82.90266937 -20.01586914 85.62915039 C-22.06621426 86.31374015 -24.10804594 87.02046688 -26.15039062 87.72851562 C-27.46568731 88.17063729 -28.78142863 88.61143881 -30.09765625 89.05078125 C-31.27851807 89.44950439 -32.45937988 89.84822754 -33.67602539 90.2590332 C-37.23171827 91.05165369 -39.50175972 90.94221307 -43 90 C-45.71205148 87.64955538 -45.97405383 86.2750294 -46.3125 82.6875 C-45.98371622 78.80785143 -45.20357061 75.685935 -44 72 C-43.34 72 -42.68 72 -42 72 C-41.87496094 70.98421875 -41.74992188 69.9684375 -41.62109375 68.921875 C-41.03420975 65.21601631 -40.15667294 61.83393248 -39.0625 58.25 C-37.50574333 52.95928349 -36.27936065 47.74597482 -35.39453125 42.3046875 C-35.02853018 40.16666146 -34.55534683 38.09583065 -34 36 C-36.475 36.495 -36.475 36.495 -39 37 C-39.29831222 31.92869234 -39.08327323 29.07641177 -36 25 C-33.2578125 23.33984375 -33.2578125 23.33984375 -30.125 21.9375 C-23.06240964 18.74251865 -19.01935667 15.33866577 -14.625 8.9375 C-10.38622005 3.13743611 -7.46767968 0 0 0 Z " fill="#FDF3F4" transform="translate(253,14)"/>
<path d="M0 0 C3.63 0 7.26 0 11 0 C14.16183018 9.80581013 16.74934916 19.68322389 19.1875 29.6875 C19.71927536 31.86255036 20.25216883 34.03730491 20.78791809 36.21138 C21.26647899 38.15417908 21.74114216 40.09793706 22.21557617 42.04174805 C22.86740479 44.90399852 22.86740479 44.90399852 24 47 C24.41511841 45.61047119 24.41511841 45.61047119 24.83862305 44.19287109 C25.88794895 40.68409522 26.94220937 37.17681679 27.99780273 33.66992188 C28.44995067 32.16542962 28.90084218 30.66055906 29.3503418 29.15527344 C32.28735018 19.32367888 35.43922023 9.62512798 39 0 C42.96 0 46.92 0 51 0 C57.93 22.77 57.93 22.77 65 46 C67.36630832 39.82944767 67.36630832 39.82944767 69.25854492 33.60351562 C69.55851631 32.46323914 69.55851631 32.46323914 69.86454773 31.29992676 C70.16942863 30.11505676 70.16942863 30.11505676 70.48046875 28.90625 C70.69818436 28.07411987 70.91589996 27.24198975 71.14021301 26.38464355 C71.82661955 23.75744698 72.50715454 21.12877191 73.1875 18.5 C73.65520973 16.70562767 74.12330506 14.9113558 74.59179688 13.1171875 C75.732323 8.74593972 76.86759021 4.37335709 78 0 C81.63 0 85.26 0 89 0 C87.61474652 7.39295935 85.82833286 14.57437986 83.77734375 21.80859375 C83.47180069 22.8971315 83.16625763 23.98566925 82.85145569 25.10719299 C81.88362597 28.5516214 80.91055623 31.99454492 79.9375 35.4375 C79.2802725 37.77529887 78.62336836 40.11318868 77.96679688 42.45117188 C76.76870555 46.71073063 75.57048828 50.97025013 74.36694336 55.22827148 C74.00626015 56.5054026 74.00626015 56.5054026 73.63829041 57.80833435 C73.13087426 59.55062363 72.57385042 61.27844873 72 63 C68.04 63 64.08 63 60 63 C56.26489534 54.2268472 53.56651192 45.25584975 50.875 36.125 C50.21163191 33.87871503 49.54683287 31.63290414 48.87747192 29.38839722 C48.4642872 28.00267921 48.05449371 26.61594395 47.64865112 25.22805786 C46.68258881 21.9857213 45.64699177 18.96196646 44 16 C43.79431396 16.71317383 43.58862793 17.42634766 43.37670898 18.16113281 C39.00260632 33.27100785 34.39251031 48.22115142 29 63 C25.04 63 21.08 63 17 63 C6.10509256 24.5100894 6.10509256 24.5100894 2.3125 10.6875 C2.06935059 9.80755371 1.82620117 8.92760742 1.57568359 8.02099609 C0 2.24033269 0 2.24033269 0 0 Z " fill="#000000" transform="translate(282,58)"/>
<path d="M0 0 C1 1 1 1 1.02722168 2.741745 C0.32871203 10.92267342 -1.9323329 18.61040827 -4.21875 26.45703125 C-4.64171548 27.93268659 -5.06386083 29.40857723 -5.48522949 30.88468933 C-6.5887556 34.74324078 -7.70213299 38.5988751 -8.8180542 42.45385742 C-10.60641238 48.63924304 -12.37825461 54.82938926 -14.15260315 61.01880455 C-14.77105391 63.17154017 -15.39291459 65.32326556 -16.01550293 67.47480774 C-16.39643373 68.79675425 -16.77733536 70.11870916 -17.15820312 71.44067383 C-17.49049927 72.58965652 -17.82279541 73.73863922 -18.16516113 74.92243958 C-18.89318548 77.60623762 -19.49660824 80.26644945 -20 83 C-19.34 83 -18.68 83 -18 83 C-18 84.98 -18 86.96 -18 89 C-19.12535156 89.36351563 -19.12535156 89.36351563 -20.2734375 89.734375 C-25.39204206 91.41049236 -30.4197036 93.13493446 -35.375 95.25 C-39.06103479 96.77197565 -41.95897125 97.42537145 -46 97 C-48.44474898 87.13306349 -43.84163493 76.44912586 -41 67 C-40.34 67 -39.68 67 -39 67 C-38.88591797 66.02925537 -38.77183594 65.05851074 -38.65429688 64.05834961 C-38.01510915 59.60517896 -36.79578547 55.37664239 -35.53125 51.06640625 C-35.03771287 49.34832095 -34.54422479 47.63022156 -34.05078125 45.91210938 C-33.27572228 43.23474449 -32.49868172 40.55796775 -31.72021484 37.8815918 C-30.96469754 35.2779519 -30.21646298 32.67229626 -29.46875 30.06640625 C-29.23643677 29.27657852 -29.00412354 28.48675079 -28.76477051 27.67298889 C-27.36305372 22.77748974 -26.51035978 18.06863672 -26 13 C-26.99 13 -27.98 13 -29 13 C-28.76953125 10.62890625 -28.76953125 10.62890625 -28 8 C-26.13671875 6.77734375 -26.13671875 6.77734375 -23.6875 5.9375 C-22.78902344 5.62167969 -21.89054687 5.30585938 -20.96484375 4.98046875 C-19.98644531 4.65691406 -19.00804687 4.33335938 -18 4 C-16.97003906 3.62488281 -15.94007813 3.24976563 -14.87890625 2.86328125 C-9.7291236 1.03096158 -5.53078858 -0.35166864 0 0 Z " fill="#FDF5F5" transform="translate(214,24)"/>
<path d="M0 0 C3.3 0 6.6 0 10 0 C10 29.37 10 58.74 10 89 C7.36 89 4.72 89 2 89 C1.34 86.69 0.68 84.38 0 82 C-0.43570313 82.40992187 -0.87140625 82.81984375 -1.3203125 83.2421875 C-7.82773266 89.12985336 -13.14207974 90.4932812 -21.8984375 90.30859375 C-28.30907861 89.67075918 -33.85530159 87.63798635 -38.375 82.9375 C-46.21693999 72.2662237 -46.19854047 59.72760811 -45 47 C-43.58348332 39.44803828 -40.07306163 32.84929968 -34 28 C-28.9995288 25.38501929 -24.64759635 24.48085828 -19.0625 24.5625 C-18.3617334 24.56717285 -17.6609668 24.5718457 -16.93896484 24.57666016 C-10.31202596 24.76626553 -5.75025196 26.24974804 -1 31 C-0.67 20.77 -0.34 10.54 0 0 Z M-27.71875 36.515625 C-34.26238644 43.89325433 -34.90515397 51.33624355 -35 61 C-34.35154506 68.70940878 -32.20788514 74.02683817 -26.4375 79.375 C-20.54913772 82.15858944 -14.66895918 81.92200408 -8.5625 79.8125 C-3.89936275 76.51418341 -1.50429172 73.15727768 -0.31640625 67.49609375 C1.00284286 57.08868411 0.50514883 47.33623057 -4.625 38.0625 C-10.81794982 32.684412 -21.10628012 30.68462883 -27.71875 36.515625 Z " fill="#000000" transform="translate(533,32)"/>
<path d="M0 0 C5.68589345 3.05175072 8.81408516 7.34045896 11.8125 12.9375 C12.9375 17.4375 12.9375 17.4375 12.9375 32.4375 C-0.9225 32.4375 -14.7825 32.4375 -29.0625 32.4375 C-27.42172812 41.81320638 -27.42172812 41.81320638 -23.0625 49.4375 C-16.36773994 53.62172503 -9.6868273 54.45722346 -2.015625 52.765625 C0.06256619 52.22833655 2.13599017 51.67211933 4.203125 51.09375 C6.9375 50.4375 6.9375 50.4375 10.9375 50.4375 C10.9375 53.4075 10.9375 56.3775 10.9375 59.4375 C0.11997338 63.6545019 -12.80269295 66.11559811 -24.00390625 61.60546875 C-31.00639341 57.63252063 -36.47983126 52.13938714 -39.0625 44.4375 C-41.85755948 33.6727439 -41.35018115 19.97099585 -35.80859375 10.234375 C-27.90547351 -1.3941943 -13.06961694 -5.22784677 0 0 Z M-23.625 10.796875 C-27.40058426 15.15677587 -29.0625 18.71415279 -29.0625 24.4375 C-18.8325 24.4375 -8.6025 24.4375 1.9375 24.4375 C1.35706337 15.72660705 1.35706337 15.72660705 -3.0625 9.4375 C-10.02995228 5.72901733 -17.37371218 5.3582546 -23.625 10.796875 Z " fill="#000000" transform="translate(599.0625,58.5625)"/>
<path d="M0 0 C0.74757568 -0.01836914 1.49515137 -0.03673828 2.26538086 -0.05566406 C7.88245956 0.00624577 12.23664969 1.18406524 16.8125 4.5 C22.39969478 10.55067866 22.48651366 16.76713446 22.30078125 24.65625 C22.29370651 25.79912476 22.28663177 26.94199951 22.27934265 28.11950684 C22.25149621 31.74702159 22.18877166 35.37295677 22.125 39 C22.09990472 41.46872761 22.07709372 43.93747957 22.05664062 46.40625 C22.00170141 52.43803315 21.91817166 58.46890369 21.8125 64.5 C19.1725 64.5 16.5325 64.5 13.8125 64.5 C13.1525 62.19 12.4925 59.88 11.8125 57.5 C11.15894531 58.11488281 11.15894531 58.11488281 10.4921875 58.7421875 C9.89664063 59.28101563 9.30109375 59.81984375 8.6875 60.375 C8.10742188 60.90867188 7.52734375 61.44234375 6.9296875 61.9921875 C0.61974025 66.48598757 -6.78121764 66.0704105 -14.1875 65.5 C-20.36854315 64.32500937 -23.70941427 61.55903378 -27.1875 56.5 C-28.28861689 53.19664934 -28.38976528 50.60167863 -28.4375 47.125 C-28.46328125 46.00351563 -28.4890625 44.88203125 -28.515625 43.7265625 C-28.01121012 38.76648281 -26.00494177 36.2984315 -22.5 32.875 C-14.89198665 26.87165448 -5.63989381 26.33474058 3.6875 26.4375 C4.47125 26.44201172 5.255 26.44652344 6.0625 26.45117188 C7.97920014 26.46285907 9.89586048 26.48079092 11.8125 26.5 C11.64312851 18.31291374 11.64312851 18.31291374 7.8125 11.5 C0.42203635 8.26569561 -6.84987165 9.83878063 -14.125 12.625 C-14.805625 12.91375 -15.48625 13.2025 -16.1875 13.5 C-17.1775 13.5 -18.1675 13.5 -19.1875 13.5 C-21.24024343 9.15301391 -21.24024343 9.15301391 -21.0234375 6.46875 C-20.1875 4.5 -20.1875 4.5 -18.31640625 3.234375 C-12.1826711 0.88170946 -6.5138004 0.088614 0 0 Z M-15.6875 39.625 C-17.76986637 43.61620222 -18.0292043 47.08517843 -17.1875 51.5 C-15.31129387 54.00160818 -13.94858697 55.11945652 -11.1875 56.5 C-4.04852291 57.22218508 1.07485486 56.94960235 6.8125 52.5 C10.49297258 47.75412746 11.95235399 44.2687574 11.875 38.3125 C11.86597656 37.41144531 11.85695313 36.51039062 11.84765625 35.58203125 C11.83605469 34.89496094 11.82445312 34.20789063 11.8125 33.5 C-2.89751041 33.30380224 -2.89751041 33.30380224 -15.6875 39.625 Z " fill="#000000" transform="translate(405.1875,56.5)"/>
<path d="M0 0 C0.7022168 0.00684814 1.40443359 0.01369629 2.12792969 0.02075195 C9.18892456 0.23966575 13.44748635 1.7536702 18.4375 6.875 C21.1206648 11.10614449 22.31495106 14.57841528 22.28955078 19.5949707 C22.28939972 20.59563065 22.28924866 21.59629059 22.28909302 22.62727356 C22.27877045 23.6951561 22.26844788 24.76303864 22.2578125 25.86328125 C22.2549826 26.96600876 22.25215271 28.06873627 22.24923706 29.20487976 C22.23805981 32.72003114 22.21295937 36.23492589 22.1875 39.75 C22.17746704 42.13606402 22.16834174 44.52213205 22.16015625 46.90820312 C22.13812845 52.75140066 22.10361513 58.59440685 22.0625 64.4375 C18.7625 64.4375 15.4625 64.4375 12.0625 64.4375 C12.04791748 63.11097412 12.03333496 61.78444824 12.01831055 60.41772461 C11.96015878 55.4768636 11.88292666 50.53645028 11.80004883 45.59594727 C11.76687883 43.46125578 11.73882242 41.32647827 11.71606445 39.19165039 C11.68237283 36.11567669 11.63004897 33.04048574 11.57421875 29.96484375 C11.56782883 29.01665268 11.5614389 28.06846161 11.55485535 27.09153748 C11.43126601 21.46965331 10.74448457 17.41228918 8.0625 12.4375 C3.52133712 8.84819659 -3.49520215 9.8892088 -8.9375 10.4375 C-13.50643694 12.56441892 -15.78367435 14.90313021 -17.9375 19.4375 C-18.7632188 22.22130194 -19.08021006 24.75722277 -19.14282227 27.65527344 C-19.16276749 28.47582214 -19.18271271 29.29637085 -19.20326233 30.14178467 C-19.22833107 31.45605438 -19.22833107 31.45605438 -19.25390625 32.796875 C-19.27468735 33.70125305 -19.29546844 34.6056311 -19.31687927 35.53741455 C-19.3821594 38.42070055 -19.44115952 41.3040761 -19.5 44.1875 C-19.54320571 46.14454044 -19.58682065 48.10157188 -19.63085938 50.05859375 C-19.73781872 54.8514712 -19.83914673 59.64443854 -19.9375 64.4375 C-23.5675 64.4375 -27.1975 64.4375 -30.9375 64.4375 C-30.9375 43.6475 -30.9375 22.8575 -30.9375 1.4375 C-27.9675 1.4375 -24.9975 1.4375 -21.9375 1.4375 C-21.2775 3.4175 -20.6175 5.3975 -19.9375 7.4375 C-19.256875 6.839375 -18.57625 6.24125 -17.875 5.625 C-12.14358139 1.35692231 -7.10054574 -0.10632106 0 0 Z " fill="#000000" transform="translate(657.9375,56.5625)"/>
<path d="M0 0 C-0.33 2.97 -0.66 5.94 -1 9 C-5 10 -5 10 -8.25 9.8125 C-12.96250638 10.04812532 -16.15544068 11.29456937 -20 14 C-25.44994864 20.45388654 -26.29264616 27.65012353 -26.4140625 35.77734375 C-26.43342865 36.58869278 -26.4527948 37.40004181 -26.4727478 38.23597717 C-26.53206966 40.80304772 -26.57873736 43.37016429 -26.625 45.9375 C-26.66322352 47.68816956 -26.70227774 49.43882119 -26.7421875 51.18945312 C-26.83773156 55.45948816 -26.92193537 59.7296111 -27 64 C-30.3 64 -33.6 64 -37 64 C-37 43.21 -37 22.42 -37 1 C-34.03 1 -31.06 1 -28 1 C-28 3.97 -28 6.94 -28 10 C-27.34 9.278125 -26.68 8.55625 -26 7.8125 C-17.8443909 -0.07275741 -10.99018483 -0.64395614 0 0 Z " fill="#000000" transform="translate(483,57)"/>
<path d="M0 0 C0.66 0.66 1.32 1.32 2 2 C2.53625 1.525625 3.0725 1.05125 3.625 0.5625 C7.70793021 -2.1236383 10.91904254 -2.16489182 15.6875 -1.4375 C19 0 19 0 20.6953125 2.31640625 C22.59500353 7.67990516 22.31707039 12.73370443 22.1875 18.375 C22.16719727 20.05142578 22.16719727 20.05142578 22.14648438 21.76171875 C22.11127164 24.50831211 22.06202096 27.25390289 22 30 C20.02 30 18.04 30 16 30 C15.97494385 29.31373535 15.9498877 28.6274707 15.92407227 27.92041016 C15.80828573 24.82174183 15.68548115 21.72339077 15.5625 18.625 C15.52318359 17.54476562 15.48386719 16.46453125 15.44335938 15.3515625 C15.40146484 14.3203125 15.35957031 13.2890625 15.31640625 12.2265625 C15.26141968 10.79691162 15.26141968 10.79691162 15.20532227 9.33837891 C15.14236535 6.97867651 15.14236535 6.97867651 14 5 C9.40354576 4.5427325 9.40354576 4.5427325 5.30151367 6.19262695 C3.583258 8.57871714 3.57284166 10.17967853 3.48828125 13.10546875 C3.45283203 14.08837891 3.41738281 15.07128906 3.38085938 16.08398438 C3.35830078 17.10814453 3.33574219 18.13230469 3.3125 19.1875 C3.27833984 20.22326172 3.24417969 21.25902344 3.20898438 22.32617188 C3.12647358 24.8840066 3.05733428 27.44149723 3 30 C1.02 30 -0.96 30 -3 30 C-3.02505615 29.31373535 -3.0501123 28.6274707 -3.07592773 27.92041016 C-3.19171427 24.82174183 -3.31451885 21.72339077 -3.4375 18.625 C-3.47681641 17.54476562 -3.51613281 16.46453125 -3.55664062 15.3515625 C-3.59853516 14.3203125 -3.64042969 13.2890625 -3.68359375 12.2265625 C-3.72025146 11.27346191 -3.75690918 10.32036133 -3.79467773 9.33837891 C-3.85763465 6.97867651 -3.85763465 6.97867651 -5 5 C-9.65052872 4.73067479 -9.65052872 4.73067479 -14 6 C-14.95168683 8.85506049 -15.1900946 10.90937282 -15.31640625 13.88671875 C-15.35830078 14.82451172 -15.40019531 15.76230469 -15.44335938 16.72851562 C-15.48267578 17.70498047 -15.52199219 18.68144531 -15.5625 19.6875 C-15.60568359 20.67556641 -15.64886719 21.66363281 -15.69335938 22.68164062 C-15.79941654 25.12095546 -15.90147714 27.56037113 -16 30 C-17.98 30 -19.96 30 -22 30 C-22 19.77 -22 9.54 -22 -1 C-20.35 -1 -18.7 -1 -17 -1 C-16.67 -0.34 -16.34 0.32 -16 1 C-15.01 0.34 -14.02 -0.32 -13 -1 C-8.23669071 -2.63313461 -4.66894949 -1.45426296 0 0 Z " fill="#000000" transform="translate(357,147)"/>
<path d="M0 0 C1.2065625 0.0309375 1.2065625 0.0309375 2.4375 0.0625 C6.18643965 7.06901343 9.02249261 14.39547864 11.86621094 21.80078125 C12.69434351 23.95530452 13.53035516 26.10665539 14.3671875 28.2578125 C14.89630051 29.62742378 15.42496304 30.99720919 15.953125 32.3671875 C16.3280307 33.33118973 16.3280307 33.33118973 16.71051025 34.31466675 C18.4375 38.83212123 18.4375 38.83212123 18.4375 41.0625 C16.1275 41.0625 13.8175 41.0625 11.4375 41.0625 C9.4575 35.6175 9.4575 35.6175 7.4375 30.0625 C2.4875 30.0625 -2.4625 30.0625 -7.5625 30.0625 C-8.201875 31.691875 -8.84125 33.32125 -9.5 35 C-11.4375 39.9375 -11.4375 39.9375 -12.5625 41.0625 C-14.56208364 41.10330783 -16.56295254 41.10504356 -18.5625 41.0625 C-16.39234057 32.98868979 -13.39287816 25.28339419 -10.26416016 17.5456543 C-9.42724047 15.47461177 -8.59794988 13.40062759 -7.76953125 11.32617188 C-3.2529332 0.07933983 -3.2529332 0.07933983 0 0 Z M-0.5625 8.0625 C-2.2125 13.0125 -3.8625 17.9625 -5.5625 23.0625 C-1.9325 23.0625 1.6975 23.0625 5.4375 23.0625 C3.7875 18.1125 2.1375 13.1625 0.4375 8.0625 C0.1075 8.0625 -0.2225 8.0625 -0.5625 8.0625 Z " fill="#000000" transform="translate(278.5625,135.9375)"/>
<path d="M0 0 C1.65 0 3.3 0 5 0 C5 14.19 5 28.38 5 43 C3.35 43 1.7 43 0 43 C-0.33 42.34 -0.66 41.68 -1 41 C-1.99 41.66 -2.98 42.32 -4 43 C-9.03582221 43.67040358 -13.53270906 43.77856254 -18.0625 41.375 C-22.70948179 35.67869974 -22.66600485 29.0596514 -22 22 C-21.12631037 18.47335502 -19.75708269 15.81116002 -17.25 13.125 C-13.5596565 11.27982825 -10.03473003 10.37849686 -5.9921875 11.61328125 C-4.29597263 12.33777789 -2.64297647 13.1617467 -1 14 C-0.67 9.38 -0.34 4.76 0 0 Z M-14.5 19.4375 C-16.34830929 23.82723456 -16.74364311 27.304672 -16 32 C-14.8410416 34.41869578 -13.87677904 36.12322096 -12 38 C-6.6537088 38.63759421 -6.6537088 38.63759421 -2.0625 36.5 C0.57639404 30.29083754 0.37379719 25.24683471 -2 19 C-3.99293052 16.59986718 -3.99293052 16.59986718 -7.875 16.5 C-11.39098351 16.60867585 -11.82261783 16.82705239 -14.5 19.4375 Z " fill="#000000" transform="translate(321,134)"/>
<path d="M0 0 C-0.90490061 11.76370791 -4.91581454 23.29395412 -13 32 C-13.66 32 -14.32 32 -15 32 C-15.33 32.99 -15.66 33.98 -16 35 C-20.93791838 37.34551123 -25.66444505 37.2134222 -31 37 C-30.55297819 29.40062931 -27.94502412 22.9704713 -25 16 C-24.50113281 14.7934375 -24.50113281 14.7934375 -23.9921875 13.5625 C-21.27289014 7.52977307 -17.48167143 4.33274947 -11.625 1.1875 C-7.40918639 -0.19354239 -4.40084374 -0.23162335 0 0 Z M-18 12 C-20.57732059 16.96217893 -22.27242664 21.35975956 -22 27 C-18.77545785 26.7068598 -16.54662222 26.38585098 -13.875 24.5 C-10.3113522 19.7484696 -7.21334131 14.09660485 -8 8 C-12.73029552 7.4593948 -14.77688498 8.52895305 -18 12 Z " fill="#E3101B" transform="translate(145,85)"/>
<path d="M0 0 C2.72187538 2.65382849 3.80369038 4.41107113 5 8 C5 10.64 5 13.28 5 16 C-1.6 16 -8.2 16 -15 16 C-12.98848737 22.77489892 -12.98848737 22.77489892 -10 24 C-5.26055347 24.31658385 -0.61552596 24.19110347 4 23 C4 24.98 4 26.96 4 29 C0.55334258 30.14888581 -2.24351905 30.2039347 -5.875 30.25 C-7.08929687 30.27578125 -8.30359375 30.3015625 -9.5546875 30.328125 C-13.25153593 29.9760442 -15.05404586 29.2014892 -18 27 C-21.4471093 22.81422442 -21.991191 18.27659184 -22 13 C-21.5754598 8.68512778 -20.4615465 5.58975386 -17.75 2.125 C-11.88778764 -2.40489137 -6.77272145 -2.75544181 0 0 Z M-13.4375 5.8125 C-15.2906191 7.95882896 -15.2906191 7.95882896 -15 11 C-10.38 11 -5.76 11 -1 11 C-2.32917961 5.52174919 -2.32917961 5.52174919 -4 4 C-9.07322231 3.50417594 -9.07322231 3.50417594 -13.4375 5.8125 Z " fill="#000000" transform="translate(649,147)"/>
<path d="M0 0 C4.148961 4.83444152 4.64260237 8.95691918 4.5625 15.0625 C4.15385187 19.95141757 2.48213746 23.20556194 -0.58984375 27.0703125 C-5.49047678 29.57063547 -10.26905269 29.333078 -15.65234375 28.6328125 C-19.90192791 26.84351391 -21.74328643 25.02117378 -23.52734375 20.8828125 C-25.37032464 14.92347309 -25.54896199 10.04244759 -22.90234375 4.3203125 C-20.57716551 0.17401564 -18.57965309 -1.78451258 -13.96484375 -3.1796875 C-9.03388315 -3.45879848 -3.95245545 -3.27035321 0 0 Z M-16.02734375 4.0703125 C-18.39655765 7.80638057 -18.85904311 11.24045113 -18.65234375 15.6328125 C-17.9537805 18.32228102 -17.0363167 20.17241615 -15.65234375 22.6328125 C-12.56060623 24.17868126 -10.05804823 23.92640771 -6.65234375 23.6328125 C-3.74517302 21.41418221 -2.81252732 20.11336321 -1.65234375 16.6328125 C-1.25707356 11.39548247 -1.87703192 8.11600853 -4.65234375 3.6328125 C-8.5020857 1.70794153 -12.37180961 1.85775236 -16.02734375 4.0703125 Z " fill="#000000" transform="translate(603.65234375,148.3671875)"/>
<path d="M0 0 C1.95486328 0.00580078 1.95486328 0.00580078 3.94921875 0.01171875 C7.3125 0.3125 7.3125 0.3125 10.3125 2.3125 C9.9825 3.9625 9.6525 5.6125 9.3125 7.3125 C8.075 7.065 8.075 7.065 6.8125 6.8125 C1.80650167 6.09735738 -2.71437387 5.4794023 -7.5 7.5 C-10.94859711 10.35740903 -12.52159144 12.99824394 -13.0859375 17.46875 C-13.07820313 18.5721875 -13.07046875 19.675625 -13.0625 20.8125 C-13.07023437 21.9159375 -13.07796875 23.019375 -13.0859375 24.15625 C-12.50562732 28.75321693 -11.05011145 31.21238813 -7.45703125 34.11328125 C-3.93141532 35.63988787 -1.20230479 35.60730761 2.625 35.5 C3.87925781 35.47292969 5.13351562 35.44585937 6.42578125 35.41796875 C7.85470703 35.36576172 7.85470703 35.36576172 9.3125 35.3125 C9.3125 36.9625 9.3125 38.6125 9.3125 40.3125 C4.10134615 42.91807692 -5.67142331 42.10344586 -11.16015625 40.6640625 C-15.71695033 38.3205684 -17.64364571 34.79325748 -19.6875 30.3125 C-22.02556027 22.90864248 -21.18027777 15.16314138 -17.6875 8.3125 C-13.27150417 1.46009267 -7.92779688 -0.10254862 0 0 Z " fill="#000000" transform="translate(469.6875,135.6875)"/>
<path d="M0 0 C3.87570822 4.09102535 5.40673281 8.30444163 5.625 13.875 C5.39074875 19.60439504 3.91511802 23.75150993 -0.25 27.8125 C-5.17257046 30.0100761 -9.44292467 30.13315362 -14.75 29.375 C-18.956049 27.57240757 -20.8574276 25.74393017 -22.625 21.625 C-24.38480467 15.97896001 -24.3709848 11.33600464 -22.5625 5.625 C-20.61322923 2.12975585 -19.16186524 0.43798828 -15.75 -1.625 C-10.18736983 -3.19704766 -5.0268245 -2.97039629 0 0 Z M-15.125 4.8125 C-17.4942139 8.54856807 -17.95669936 11.98263863 -17.75 16.375 C-17.05143675 19.06446852 -16.13397295 20.91460365 -14.75 23.375 C-11.65826248 24.92086876 -9.15570448 24.66859521 -5.75 24.375 C-2.84282927 22.15636971 -1.91018357 20.85555071 -0.75 17.375 C-0.35472981 12.13766997 -0.97468817 8.85819603 -3.75 4.375 C-7.59974195 2.45012903 -11.46946586 2.59993986 -15.125 4.8125 Z " fill="#000000" transform="translate(507.75,147.625)"/>
<path d="M0 0 C2.68527111 3.51150838 2.74529505 6.3892356 2.72265625 10.66796875 C2.71943359 11.74111328 2.71621094 12.81425781 2.71289062 13.91992188 C2.70451172 15.03947266 2.69613281 16.15902344 2.6875 17.3125 C2.68298828 18.44365234 2.67847656 19.57480469 2.67382812 20.74023438 C2.66203498 23.53520927 2.6455765 26.3300782 2.625 29.125 C0.645 29.125 -1.335 29.125 -3.375 29.125 C-3.87 16.75 -3.87 16.75 -4.375 4.125 C-7.345 4.125 -10.315 4.125 -13.375 4.125 C-16.69567665 7.44567665 -16.75966927 7.83455683 -16.88671875 12.23046875 C-16.93989258 13.70483398 -16.93989258 13.70483398 -16.99414062 15.20898438 C-17.02797852 16.74522461 -17.02797852 16.74522461 -17.0625 18.3125 C-17.09666016 19.34826172 -17.13082031 20.38402344 -17.16601562 21.45117188 C-17.24852642 24.0090066 -17.31766572 26.56649723 -17.375 29.125 C-19.355 29.125 -21.335 29.125 -23.375 29.125 C-23.375 18.895 -23.375 8.665 -23.375 -1.875 C-21.725 -1.875 -20.075 -1.875 -18.375 -1.875 C-18.045 -1.215 -17.715 -0.555 -17.375 0.125 C-16.385 -0.535 -15.395 -1.195 -14.375 -1.875 C-9.27981969 -3.43186065 -4.27684356 -3.37645544 0 0 Z " fill="#000000" transform="translate(543.375,147.875)"/>
<path d="M0 0 C2.23071793 3.28046754 2.18042038 6.27554864 2.16015625 10.10546875 C2.15693359 11.17861328 2.15371094 12.25175781 2.15039062 13.35742188 C2.14201172 14.47697266 2.13363281 15.59652344 2.125 16.75 C2.12048828 17.88115234 2.11597656 19.01230469 2.11132812 20.17773438 C2.09953498 22.97270927 2.0830765 25.7675782 2.0625 28.5625 C0.0825 28.5625 -1.8975 28.5625 -3.9375 28.5625 C-3.95731934 27.87623535 -3.97713867 27.1899707 -3.99755859 26.48291016 C-4.09260945 23.38404221 -4.20236847 20.28586706 -4.3125 17.1875 C-4.3434375 16.10726562 -4.374375 15.02703125 -4.40625 13.9140625 C-4.44492187 12.8828125 -4.48359375 11.8515625 -4.5234375 10.7890625 C-4.57056885 9.35941162 -4.57056885 9.35941162 -4.61865234 7.90087891 C-4.72305796 5.37354824 -4.72305796 5.37354824 -6.9375 3.5625 C-11.57573162 3.08422049 -11.57573162 3.08422049 -15.8125 4.6875 C-18.58930891 9.31551485 -18.20817127 15.64631018 -18.5 20.9375 C-18.54318359 21.67355469 -18.58636719 22.40960938 -18.63085938 23.16796875 C-18.73593799 24.96598068 -18.83712093 26.76421958 -18.9375 28.5625 C-20.5875 28.5625 -22.2375 28.5625 -23.9375 28.5625 C-23.9375 18.3325 -23.9375 8.1025 -23.9375 -2.4375 C-22.2875 -2.4375 -20.6375 -2.4375 -18.9375 -2.4375 C-18.6075 -1.7775 -18.2775 -1.1175 -17.9375 -0.4375 C-16.9475 -1.0975 -15.9575 -1.7575 -14.9375 -2.4375 C-9.87444784 -4.1734036 -4.28924124 -3.18234028 0 0 Z " fill="#000000" transform="translate(425.9375,148.4375)"/>
<path d="M0 0 C-0.33 1.65 -0.66 3.3 -1 5 C-1.67546875 4.91621094 -2.3509375 4.83242187 -3.046875 4.74609375 C-3.93890625 4.64425781 -4.8309375 4.54242188 -5.75 4.4375 C-6.63171875 4.33308594 -7.5134375 4.22867188 -8.421875 4.12109375 C-10.88432451 4.00543324 -12.66538064 4.26361305 -15 5 C-14.95015081 6.92206313 -14.95015081 6.92206313 -14 9 C-11.33802558 10.66163713 -11.33802558 10.66163713 -8.125 12 C-1.14882091 15.0930529 -1.14882091 15.0930529 1 19 C1 23.1159561 0.77288537 25.19716889 -2.1171875 28.19921875 C-5.71536314 30.44685963 -7.91556234 30.44208991 -12.125 30.3125 C-13.34445312 30.28800781 -14.56390625 30.26351562 -15.8203125 30.23828125 C-19 30 -19 30 -22 29 C-22 27.02 -22 25.04 -22 23 C-21.26394531 23.16757813 -20.52789063 23.33515625 -19.76953125 23.5078125 C-18.79371094 23.71148437 -17.81789063 23.91515625 -16.8125 24.125 C-15.36810547 24.43824219 -15.36810547 24.43824219 -13.89453125 24.7578125 C-10.65447747 25.02891012 -8.88453715 24.42381175 -6 23 C-6 22.01 -6 21.02 -6 20 C-6.98742187 19.54109375 -7.97484375 19.0821875 -8.9921875 18.609375 C-10.28676699 17.99022829 -11.58102107 17.37040086 -12.875 16.75 C-13.52597656 16.44964844 -14.17695312 16.14929688 -14.84765625 15.83984375 C-17.56999223 14.52077374 -19.6607131 13.4697117 -21.453125 10.98828125 C-22.34863556 7.73246073 -21.8229078 5.23285208 -21 2 C-15.42990556 -4.18899383 -7.12877699 -1.53484344 0 0 Z " fill="#000000" transform="translate(574,147)"/>
<path d="M0 0 C1.98 0 3.96 0 6 0 C6 14.19 6 28.38 6 43 C4.02 43 2.04 43 0 43 C0 28.81 0 14.62 0 0 Z " fill="#000000" transform="translate(615,134)"/>
<path d="M0 0 C0.66 0.33 1.32 0.66 2 1 C2.99363033 4.89808822 3.18935052 7.3846108 2 11.25 C-0.62105238 14.85394702 -2.70801099 15.89000284 -7 17 C-9.9375 16.125 -9.9375 16.125 -12 14 C-12.74539887 9.61042885 -12.29172303 7.52510145 -10.125 3.625 C-6.91071049 -0.34559292 -4.96508324 -0.20687847 0 0 Z " fill="#E30613" transform="translate(279,78)"/>
<path d="M0 0 C1.98 0 3.96 0 6 0 C6 10.23 6 20.46 6 31 C4.02 31 2.04 31 0 31 C0 20.77 0 10.54 0 0 Z " fill="#000000" transform="translate(387,146)"/>
<path d="M0 0 C-0.45822468 3.46941546 -0.89131683 6.67395049 -2 10 C-0.80761719 9.566875 0.38476562 9.13375 1.61328125 8.6875 C3.1795982 8.12475139 4.74600939 7.56226502 6.3125 7 C7.09818359 6.71382812 7.88386719 6.42765625 8.69335938 6.1328125 C9.45068359 5.86210937 10.20800781 5.59140625 10.98828125 5.3125 C11.68477783 5.06113281 12.38127441 4.80976563 13.09887695 4.55078125 C15 4 15 4 18 4 C17.67 5.32 17.34 6.64 17 8 C16.67 7.34 16.34 6.68 16 6 C14.96359375 6.3609375 13.9271875 6.721875 12.859375 7.09375 C11.48969264 7.5628193 10.11989486 8.03155166 8.75 8.5 C8.06808594 8.73847656 7.38617188 8.97695313 6.68359375 9.22265625 C3.23586997 10.39421287 0.68297096 11 -3 11 C-2.67 8.03 -2.34 5.06 -2 2 C-4.64 2.66 -7.28 3.32 -10 4 C-9 2 -9 2 -6.125 0.875 C-3 0 -3 0 0 0 Z " fill="#EC8E8F" transform="translate(253,14)"/>
<path d="M0 0 C1.67542976 0.28604898 3.34385343 0.61781233 5 1 C5 2.65 5 4.3 5 6 C3.34385343 6.38218767 1.67542976 6.71395102 0 7 C-1 6 -1 6 -1.125 3.5 C-1 1 -1 1 0 0 Z " fill="#000000" transform="translate(388,135)"/>
<path d="M0 0 C0.33 1.32 0.66 2.64 1 4 C1.99 4 2.98 4 4 4 C3.50269348 8.97306516 2.44697666 12.63799813 0 17 C-0.66 17 -1.32 17 -2 17 C-0.68938409 12.76570244 0.94356259 8.92592596 3 5 C1.68 5.33 0.36 5.66 -1 6 C-0.67 4.02 -0.34 2.04 0 0 Z " fill="#F0A8A9" transform="translate(76,76)"/>
<path d="M0 0 C0.66 0.33 1.32 0.66 2 1 C0.56877218 2.48523642 -0.87020889 3.96300462 -2.3125 5.4375 C-3.11300781 6.26121094 -3.91351563 7.08492188 -4.73828125 7.93359375 C-7 10 -7 10 -10 11 C-8.55218207 7.55571735 -6.72305391 5.63869038 -3.875 3.25 C-3.15054688 2.63640625 -2.42609375 2.0228125 -1.6796875 1.390625 C-0.84824219 0.70226562 -0.84824219 0.70226562 0 0 Z " fill="#F2B8B9" transform="translate(114,77)"/>
<path d="M0 0 C-0.75 6.75 -0.75 6.75 -3 9 C-2.67 6.69 -2.34 4.38 -2 2 C-4.64 2.66 -7.28 3.32 -10 4 C-9 2 -9 2 -6.125 0.875 C-3 0 -3 0 0 0 Z " fill="#F0AEAF" transform="translate(253,14)"/>
<path d="M0 0 C0.66 0 1.32 0 2 0 C2 0.66 2 1.32 2 2 C1.34 2 0.68 2 0 2 C0 1.34 0 0.68 0 0 Z " fill="#E30613" transform="translate(203,140)"/>
<path d="M0 0 C0.66 0 1.32 0 2 0 C2 0.66 2 1.32 2 2 C1.34 2 0.68 2 0 2 C0 1.34 0 0.68 0 0 Z " fill="#E30613" transform="translate(195,131)"/>
<path d="M0 0 C0.66 0 1.32 0 2 0 C2 0.66 2 1.32 2 2 C1.34 2 0.68 2 0 2 C0 1.34 0 0.68 0 0 Z " fill="#E30613" transform="translate(265,101)"/>
<path d="M0 0 C0.66 0 1.32 0 2 0 C2 0.66 2 1.32 2 2 C1.34 2 0.68 2 0 2 C0 1.34 0 0.68 0 0 Z " fill="#E30613" transform="translate(154,41)"/>
<path d="M0 0 C0.33 0.66 0.66 1.32 1 2 C0.34 1.67 -0.32 1.34 -1 1 C-0.67 0.67 -0.34 0.34 0 0 Z " fill="#E30B16" transform="translate(278,102)"/>
<path d="" fill="#E30613" transform="translate(0,0)"/>
</svg>
