<svg version="1.1" xmlns="http://www.w3.org/2000/svg" viewBox="0 0 700 200">
<path d="M0 0 C-0.61118369 3.56523819 -1.62022499 6.66273931 -3 10 C-1.96359375 9.6390625 -0.9271875 9.278125 0.140625 8.90625 C1.51030736 8.4371807 2.88010514 7.96844834 4.25 7.5 C4.93191406 7.26152344 5.61382812 7.02304688 6.31640625 6.77734375 C9.76413003 5.60578713 12.31702904 5 16 5 C14.67074516 16.91012337 13.05849339 30.61666684 3.75390625 39.03125 C0.72130424 41.19923782 -2.13589274 42.45060833 -5.625 43.75 C-7.31496094 44.39195313 -7.31496094 44.39195313 -9.0390625 45.046875 C-12 46 -12 46 -15 46 C-15.0825 46.886875 -15.165 47.77375 -15.25 48.6875 C-15.9399231 53.69201684 -17.61050056 58.41467967 -19.16015625 63.20703125 C-20.0959874 65.83312946 -20.0959874 65.83312946 -20 68 C-19.59587891 66.15921875 -19.59587891 66.15921875 -19.18359375 64.28125 C-18.1026183 61.40541149 -17.38262101 60.24027169 -14.75439453 58.58984375 C-11.88907559 57.40852353 -9.02048589 56.42472589 -6.0625 55.5 C-5.06025391 55.15453125 -4.05800781 54.8090625 -3.02539062 54.453125 C1.21783691 53.02644943 4.48451183 52 9 52 C8.32834417 58.90702786 6.23647003 65.32947869 4.1875 71.9375 C3.84396484 73.07896484 3.50042969 74.22042969 3.14648438 75.39648438 C-0.00084889 85.61793631 -2.94328244 93.75746131 -12 100 C-20.05693839 103.85646714 -28.59446265 106.81266155 -37 109.8125 C-38.08539063 110.21919922 -39.17078125 110.62589844 -40.2890625 111.04492188 C-47.72618984 113.68519083 -54.12435755 114.53479869 -62 114 C-62.28875 114.9075 -62.5775 115.815 -62.875 116.75 C-65.157323 120.24061164 -65.76300469 120.59351331 -69.46875 121.96875 C-70.3644873 122.30487305 -71.26022461 122.64099609 -72.18310547 122.98730469 C-73.11268066 123.32149414 -74.04225586 123.65568359 -75 124 C-75.87672363 124.32129883 -76.75344727 124.64259766 -77.65673828 124.97363281 C-80.30388685 125.92721518 -82.96165037 126.84274786 -85.625 127.75 C-86.95917969 128.22373047 -86.95917969 128.22373047 -88.3203125 128.70703125 C-94.39383789 130.77024355 -100.27409248 132.49036301 -106.5 130 C-106.995 129.67 -107.49 129.34 -108 129 C-109.11375 130.1446875 -109.11375 130.1446875 -110.25 131.3125 C-114.98286909 135.93780388 -119.86424732 138.53295918 -125.8125 141.3125 C-127.07694946 141.90526733 -127.07694946 141.90526733 -128.36694336 142.51000977 C-138.97408144 147.43557497 -149.36096069 152.19917144 -161 154 C-161.91523438 154.19464844 -162.83046875 154.38929688 -163.7734375 154.58984375 C-171.01975427 156.10859233 -177.21090738 157.01698103 -183.8125 152.9375 C-187.67437278 150.35986045 -188.6058922 146.21859896 -190 142 C-190.40726318 142.82725586 -190.81452637 143.65451172 -191.23413086 144.50683594 C-192.77234389 147.59758306 -194.33458471 150.67355862 -195.91430664 153.74316406 C-196.59023192 155.06888724 -197.25646866 156.39960009 -197.91235352 157.73535156 C-204.07218096 170.25144742 -204.07218096 170.25144742 -209.33984375 172.65625 C-210.88158128 173.14274869 -212.43626774 173.58966232 -214 174 C-215.74509921 174.63265033 -217.48721081 175.27359006 -219.2265625 175.921875 C-221.02443505 176.53597391 -222.82393756 177.14532054 -224.625 177.75 C-225.97851562 178.22373047 -225.97851562 178.22373047 -227.359375 178.70703125 C-233.32949712 180.71737849 -238.73495259 182.37857557 -244.8125 179.8125 C-248.70626752 176.58623548 -249.25930987 172.30259192 -249.86962891 167.46289062 C-250.00962311 166.37826538 -250.14961731 165.29364014 -250.29385376 164.17614746 C-250.43664764 163.0145813 -250.57944153 161.85301514 -250.7265625 160.65625 C-250.87910492 159.45440063 -251.03164734 158.25255127 -251.18881226 157.01428223 C-251.50958083 154.47622897 -251.82710085 151.93776333 -252.14160156 149.39892578 C-252.62330654 145.51365888 -253.11548398 141.62982843 -253.609375 137.74609375 C-253.9198888 135.27872352 -254.22980478 132.81127798 -254.5390625 130.34375 C-254.68590485 129.18218384 -254.83274719 128.02061768 -254.98403931 126.82385254 C-255.11772919 125.73922729 -255.25141907 124.65460205 -255.38916016 123.53710938 C-255.50748199 122.58622437 -255.62580383 121.63533936 -255.74771118 120.65563965 C-255.98918707 118.11381894 -256 115.55326519 -256 113 C-261.445 113.99 -261.445 113.99 -267 115 C-266.40542915 111.97309386 -265.718976 108.99893733 -265 106 C-264.87061035 105.36771484 -264.7412207 104.73542969 -264.60791016 104.08398438 C-262.0262751 91.72714135 -262.0262751 91.72714135 -257.77734375 88.10546875 C-255.24877587 87.01763883 -252.77392993 86.229352 -250.10400391 85.56884766 C-247.55575708 84.87989255 -245.09489852 84.01455441 -242.60546875 83.13671875 C-240.65440737 82.46393333 -238.70257661 81.79337513 -236.75 81.125 C-235.34826538 80.63954712 -235.34826538 80.63954712 -233.91821289 80.14428711 C-228.10609671 78.26822756 -223.99050259 77.64708874 -218 79 C-215.28763363 80.64169543 -214.31399343 81.97147025 -213.390625 84.99609375 C-212.81412531 87.65585366 -212.39078544 90.30637178 -212 93 C-211.814375 94.24265625 -211.62875 95.4853125 -211.4375 96.765625 C-210.94059894 100.17491836 -210.46243072 103.58588386 -210 107 C-208.96455826 105.09118566 -207.94709915 103.17260796 -206.9375 101.25 C-206.36902344 100.18265625 -205.80054688 99.1153125 -205.21484375 98.015625 C-203.74119727 95.22461522 -203.74119727 95.22461522 -204.49389648 93.12792969 C-205.5381655 88.7372646 -203.39748538 84.20899009 -202.125 80 C-201.86203125 79.00226563 -201.5990625 78.00453125 -201.328125 76.9765625 C-199.18630183 69.90665062 -199.18630183 69.90665062 -196.10473633 67.55151367 C-193.76714746 66.48105811 -191.46730375 65.72058658 -189 65 C-187.26835035 64.37435261 -185.5379036 63.74536716 -183.80859375 63.11328125 C-182.01981519 62.50831085 -180.22942732 61.90807903 -178.4375 61.3125 C-177.54353516 61.00505859 -176.64957031 60.69761719 -175.72851562 60.38085938 C-162.97701463 56.11792159 -162.97701463 56.11792159 -156.625 58 C-153.19631677 60.61233008 -153.0135249 62.90801161 -152 67 C-151.19820313 66.56429687 -150.39640625 66.12859375 -149.5703125 65.6796875 C-133.72303224 57.37873117 -112.49027676 48.00268227 -94.375 53 C-93.59125 53.33 -92.8075 53.66 -92 54 C-91.01 51.36 -90.02 48.72 -89 46 C-89.99 46 -90.98 46 -92 46 C-91.78682201 43.28198068 -91.44069695 40.6871704 -91 38 C-90.79491821 36.45977173 -90.79491821 36.45977173 -90.58569336 34.88842773 C-89.81564442 31.13612423 -88.94592573 28.31362306 -87 25 C-82.23307035 21.98536597 -77.23263572 20.65847496 -71.8125 19.25 C-70.39241948 18.84097532 -68.97376881 18.42695158 -67.55664062 18.0078125 C-64.97838497 17.24802825 -62.39989911 16.52590745 -59.80395508 15.82519531 C-57.11834873 15.27791782 -57.11834873 15.27791782 -56 14 C-48.97157623 13.29715762 -48.97157623 13.29715762 -45.0625 16.125 C-42.83809846 19.22568093 -42.26298363 21.2305679 -42 25 C-37.5626835 21.93613861 -35.73987466 19.60620469 -33.64453125 14.625 C-30.35073318 8.41993917 -26.56166379 6.87890181 -20.02148438 4.83398438 C-18.79751953 4.49689453 -17.57355469 4.15980469 -16.3125 3.8125 C-14.45915039 3.24305664 -14.45915039 3.24305664 -12.56835938 2.66210938 C-3.74440552 0 -3.74440552 0 0 0 Z M-140 97 C-142.57732059 101.96217893 -144.27242664 106.35975956 -144 112 C-140.77545785 111.7068598 -138.54662222 111.38585098 -135.875 109.5 C-132.3113522 104.7484696 -129.21334131 99.09660485 -130 93 C-134.73029552 92.4593948 -136.77688498 93.52895305 -140 97 Z " fill="#E30A16" transform="translate(267,0)"/>
<path d="M0 0 C1.18142578 -0.05994141 1.18142578 -0.05994141 2.38671875 -0.12109375 C3.06734375 -0.15847656 3.74796875 -0.19585937 4.44921875 -0.234375 C7.41592263 0.4175821 8.56354324 1.81369815 10.38671875 4.19140625 C14.10652525 21.04597776 3.82565175 43.48810018 -4.6953125 57.44140625 C-15.61977512 73.10499421 -39.49109782 80.94399345 -57.61328125 84.19140625 C-59.63032787 84.35308804 -61.65284849 84.45531494 -63.67578125 84.50390625 C-64.69800781 84.54128906 -65.72023438 84.57867187 -66.7734375 84.6171875 C-70.35248692 84.08057624 -71.48210505 83.07328046 -73.61328125 80.19140625 C-75.08988354 73.87204899 -73.00405186 66.38468161 -71.61328125 60.19140625 C-71.45730469 59.49160645 -71.30132812 58.79180664 -71.140625 58.07080078 C-67.09369291 40.32050697 -61.39925961 24.44455849 -45.609375 13.91796875 C-39.54089267 10.42087724 -33.11987908 7.75806267 -26.61328125 5.19140625 C-25.53304687 4.76472656 -24.4528125 4.33804688 -23.33984375 3.8984375 C-15.51516008 1.05403149 -8.21399336 0.60162283 0 0 Z M-34.61328125 35.19140625 C-37.19060184 40.15358518 -38.88570789 44.55116581 -38.61328125 50.19140625 C-35.3887391 49.89826605 -33.15990347 49.57725723 -30.48828125 47.69140625 C-26.92463345 42.93987585 -23.82662256 37.2880111 -24.61328125 31.19140625 C-29.34357677 30.65080105 -31.39016623 31.7203593 -34.61328125 35.19140625 Z " fill="#FDF7F7" transform="translate(161.61328125,61.80859375)"/>
<path d="M0 0 C1.23556641 0.01740234 1.23556641 0.01740234 2.49609375 0.03515625 C3.32238281 0.04417969 4.14867188 0.05320312 5 0.0625 C5.63808594 0.07410156 6.27617188 0.08570312 6.93359375 0.09765625 C7.57293977 5.21242444 5.33892922 8.77020003 2.93359375 13.09765625 C2.27359375 13.09765625 1.61359375 13.09765625 0.93359375 13.09765625 C0.66546875 13.94328125 0.39734375 14.78890625 0.12109375 15.66015625 C-1.11426575 19.23619692 -2.54339425 22.63626533 -4.06640625 26.09765625 C-4.72640625 26.09765625 -5.38640625 26.09765625 -6.06640625 26.09765625 C-6.31640381 26.93337158 -6.56640137 27.76908691 -6.82397461 28.63012695 C-8.20427781 32.48244495 -9.99754324 35.99349067 -11.9453125 39.578125 C-12.50350929 40.6201281 -12.50350929 40.6201281 -13.07298279 41.68318176 C-14.25387296 43.88624723 -15.44094473 46.085897 -16.62890625 48.28515625 C-17.81960329 50.49555748 -19.00891971 52.70667392 -20.19554138 54.91926575 C-20.93195995 56.29180978 -21.67085058 57.66303103 -22.41249084 59.03276062 C-23.84630643 61.70035618 -25.10642925 64.21772526 -26.06640625 67.09765625 C-26.72640625 67.09765625 -27.38640625 67.09765625 -28.06640625 67.09765625 C-28.33453125 67.94328125 -28.60265625 68.78890625 -28.87890625 69.66015625 C-30.11426575 73.23619692 -31.54339425 76.63626533 -33.06640625 80.09765625 C-33.72640625 80.09765625 -34.38640625 80.09765625 -35.06640625 80.09765625 C-35.33453125 80.94328125 -35.60265625 81.78890625 -35.87890625 82.66015625 C-36.27078125 83.79453125 -36.66265625 84.92890625 -37.06640625 86.09765625 C-37.45828125 87.29390625 -37.85015625 88.49015625 -38.25390625 89.72265625 C-41.68855092 96.1182015 -49.12869924 98.07505806 -55.69140625 100.34765625 C-56.79742187 100.74984375 -56.79742187 100.74984375 -57.92578125 101.16015625 C-61.75541427 102.50533201 -64.94590486 103.45596072 -69.06640625 103.09765625 C-70.89980106 98.15855385 -71.81184212 93.34566871 -72.56640625 88.16015625 C-72.6945874 87.29479248 -72.82276855 86.42942871 -72.95483398 85.5378418 C-74.1777015 76.93171014 -74.89348926 68.29733954 -75.6015625 59.63671875 C-76.02316089 54.51157974 -76.50397995 49.39676517 -77.06640625 44.28515625 C-77.13738525 43.57979736 -77.20836426 42.87443848 -77.28149414 42.14770508 C-77.68280974 38.19149152 -77.68280974 38.19149152 -80.06640625 35.09765625 C-82.13514659 34.45513275 -82.13514659 34.45513275 -84.06640625 34.09765625 C-83.57140625 31.12765625 -83.57140625 31.12765625 -83.06640625 28.09765625 C-79.34173377 26.75152928 -75.6110075 25.42303354 -71.87890625 24.09765625 C-70.82380859 23.71609375 -69.76871094 23.33453125 -68.68164062 22.94140625 C-67.66005859 22.58046875 -66.63847656 22.21953125 -65.5859375 21.84765625 C-64.64854736 21.5125 -63.71115723 21.17734375 -62.74536133 20.83203125 C-59.9883086 20.07624754 -57.90388613 19.72819747 -55.06640625 20.09765625 C-53.15254069 22.96845459 -52.76867493 23.88821482 -52.39624023 27.12255859 C-52.25115273 28.32928726 -52.25115273 28.32928726 -52.10313416 29.56039429 C-52.00722488 30.42605011 -51.91131561 31.29170593 -51.8125 32.18359375 C-51.70672134 33.07752838 -51.60094269 33.97146301 -51.49195862 34.89248657 C-51.15500216 37.75171415 -50.82903929 40.61206223 -50.50390625 43.47265625 C-50.17312131 46.32582667 -49.84006056 49.1787145 -49.50514221 52.03140259 C-49.29746671 53.80627641 -49.0925474 55.58147547 -48.89073181 57.35702515 C-48.79715897 58.16781525 -48.70358612 58.97860535 -48.60717773 59.81396484 C-48.48632057 60.87627823 -48.48632057 60.87627823 -48.36302185 61.96005249 C-48.0306633 64.35524303 -47.54064248 66.72647512 -47.06640625 69.09765625 C-37.82640625 50.61765625 -28.58640625 32.13765625 -19.06640625 13.09765625 C-20.38640625 13.42765625 -21.70640625 13.75765625 -23.06640625 14.09765625 C-23.12890625 11.34765625 -23.12890625 11.34765625 -22.06640625 8.09765625 C-17.11241885 4.68616038 -10.76939861 3.29493346 -5.03515625 1.7109375 C-2.74129276 0.99638082 -2.4253822 0.11462109 0 0 Z " fill="#FDF5F5" transform="translate(98.06640625,67.90234375)"/>
<path d="M0 0 C-0.45822468 3.46941546 -0.89131683 6.67395049 -2 10 C-0.80761719 9.566875 0.38476562 9.13375 1.61328125 8.6875 C3.1795982 8.12475139 4.74600939 7.56226502 6.3125 7 C7.09818359 6.71382812 7.88386719 6.42765625 8.69335938 6.1328125 C9.45068359 5.86210937 10.20800781 5.59140625 10.98828125 5.3125 C11.68477783 5.06113281 12.38127441 4.80976563 13.09887695 4.55078125 C15 4 15 4 18 4 C17.53884107 9.34944357 17.13585443 13.466381 14 18 C11.14205924 19.44409868 8.15584328 20.20771287 5.0625 21 C3.44369448 21.41659491 1.82999201 21.85363794 0.22265625 22.3125 C-0.49140381 22.49425781 -1.20546387 22.67601563 -1.94116211 22.86328125 C-7.09686086 25.70982855 -8.74545969 31.57180436 -10.32421875 36.90234375 C-10.51595169 37.5431337 -10.70768463 38.18392365 -10.90522766 38.84413147 C-11.30563813 40.18983297 -11.70118561 41.5369903 -12.09204102 42.88549805 C-12.68585633 44.93183578 -13.29569015 46.9728621 -13.90820312 49.01367188 C-15.67828486 54.99584664 -17.22962537 60.78993825 -18 67 C-8.27443058 65.10440307 -8.27443058 65.10440307 0 60 C1.32132038 57.91391541 2.542348 55.78533143 3.765625 53.640625 C5 52 5 52 7.8125 51.5 C8.534375 51.665 9.25625 51.83 10 52 C9.37822527 60.08307145 7.71237135 68.48124798 2.6875 75 C-4.30451794 80.20336219 -11.80680114 82.90266937 -20.01586914 85.62915039 C-22.06621426 86.31374015 -24.10804594 87.02046688 -26.15039062 87.72851562 C-27.46568731 88.17063729 -28.78142863 88.61143881 -30.09765625 89.05078125 C-31.27851807 89.44950439 -32.45937988 89.84822754 -33.67602539 90.2590332 C-37.23171827 91.05165369 -39.50175972 90.94221307 -43 90 C-45.71205148 87.64955538 -45.97405383 86.2750294 -46.3125 82.6875 C-45.98371622 78.80785143 -45.20357061 75.685935 -44 72 C-43.34 72 -42.68 72 -42 72 C-41.87496094 70.98421875 -41.74992188 69.9684375 -41.62109375 68.921875 C-41.03420975 65.21601631 -40.15667294 61.83393248 -39.0625 58.25 C-37.50574333 52.95928349 -36.27936065 47.74597482 -35.39453125 42.3046875 C-35.02853018 40.16666146 -34.55534683 38.09583065 -34 36 C-36.475 36.495 -36.475 36.495 -39 37 C-39.29831222 31.92869234 -39.08327323 29.07641177 -36 25 C-33.2578125 23.33984375 -33.2578125 23.33984375 -30.125 21.9375 C-23.06240964 18.74251865 -19.01935667 15.33866577 -14.625 8.9375 C-10.38622005 3.13743611 -7.46767968 0 0 0 Z " fill="#FDF3F4" transform="translate(253,14)"/>
<path d="M0 0 C3.3 0 6.6 0 10 0 C13.16183018 9.80581013 15.74934916 19.68322389 18.1875 29.6875 C18.71927536 31.86255036 19.25216883 34.03730491 19.78791809 36.21138 C20.26647899 38.15417908 20.74114216 40.09793706 21.21557617 42.04174805 C21.86740479 44.90399852 21.86740479 44.90399852 23 47 C23.41511841 45.61047119 23.41511841 45.61047119 23.83862305 44.19287109 C24.88794895 40.68409522 25.94220937 37.17681679 26.99780273 33.66992188 C27.44995067 32.16542962 27.90084218 30.66055906 28.3503418 29.15527344 C31.28735018 19.32367888 34.43922023 9.62512798 38 0 C41.96 0 45.92 0 50 0 C56.93 22.77 56.93 22.77 64 46 C66.36630832 39.82944767 66.36630832 39.82944767 68.25854492 33.60351562 C68.55851631 32.46323914 68.55851631 32.46323914 68.86454773 31.29992676 C69.16942863 30.11505676 69.16942863 30.11505676 69.48046875 28.90625 C69.69818436 28.07411987 69.91589996 27.24198975 70.14021301 26.38464355 C70.82661955 23.75744698 71.50715454 21.12877191 72.1875 18.5 C72.65520973 16.70562767 73.12330506 14.9113558 73.59179688 13.1171875 C74.732323 8.74593972 75.86759021 4.37335709 77 0 C80.63 0 84.26 0 88 0 C86.61474652 7.39295935 84.82833286 14.57437986 82.77734375 21.80859375 C82.47180069 22.8971315 82.16625763 23.98566925 81.85145569 25.10719299 C80.88362597 28.5516214 79.91055623 31.99454492 78.9375 35.4375 C78.2802725 37.77529887 77.62336836 40.11318868 76.96679688 42.45117188 C75.76870555 46.71073063 74.57048828 50.97025013 73.36694336 55.22827148 C73.00626015 56.5054026 73.00626015 56.5054026 72.63829041 57.80833435 C72.13087426 59.55062363 71.57385042 61.27844873 71 63 C67.04 63 63.08 63 59 63 C55.26489534 54.2268472 52.56651192 45.25584975 49.875 36.125 C49.21163191 33.87871503 48.54683287 31.63290414 47.87747192 29.38839722 C47.4642872 28.00267921 47.05449371 26.61594395 46.64865112 25.22805786 C45.68258881 21.9857213 44.64699177 18.96196646 43 16 C42.79431396 16.71317383 42.58862793 17.42634766 42.37670898 18.16113281 C38.00260632 33.27100785 33.39251031 48.22115142 28 63 C24.04 63 20.08 63 16 63 C14.52269401 57.79434739 13.04781842 52.58801375 11.57495117 47.38110352 C11.07622897 45.61920724 10.57690449 43.8574813 10.0769043 42.09594727 C8.36647333 36.06896039 6.67206775 30.03774821 5 24 C4.75473572 23.1144342 4.50947144 22.22886841 4.2567749 21.31646729 C3.54205808 18.71959366 2.83756498 16.12017876 2.13671875 13.51953125 C1.92070511 12.73527267 1.70469147 11.9510141 1.48213196 11.14299011 C1.28653183 10.40849136 1.0909317 9.67399261 0.8894043 8.91723633 C0.71692673 8.279095 0.54444916 7.64095367 0.366745 6.98347473 C0 5 0 5 0 0 Z " fill="#000000" transform="translate(287,57)"/>
<path d="M0 0 C1 1 1 1 1.02722168 2.741745 C0.32871203 10.92267342 -1.9323329 18.61040827 -4.21875 26.45703125 C-4.64171548 27.93268659 -5.06386083 29.40857723 -5.48522949 30.88468933 C-6.5887556 34.74324078 -7.70213299 38.5988751 -8.8180542 42.45385742 C-10.60641238 48.63924304 -12.37825461 54.82938926 -14.15260315 61.01880455 C-14.77105391 63.17154017 -15.39291459 65.32326556 -16.01550293 67.47480774 C-16.39643373 68.79675425 -16.77733536 70.11870916 -17.15820312 71.44067383 C-17.49049927 72.58965652 -17.82279541 73.73863922 -18.16516113 74.92243958 C-18.89318548 77.60623762 -19.49660824 80.26644945 -20 83 C-19.34 83 -18.68 83 -18 83 C-18 84.98 -18 86.96 -18 89 C-19.12535156 89.36351563 -19.12535156 89.36351563 -20.2734375 89.734375 C-25.39204206 91.41049236 -30.4197036 93.13493446 -35.375 95.25 C-39.06103479 96.77197565 -41.95897125 97.42537145 -46 97 C-48.44474898 87.13306349 -43.84163493 76.44912586 -41 67 C-40.34 67 -39.68 67 -39 67 C-38.88591797 66.02925537 -38.77183594 65.05851074 -38.65429688 64.05834961 C-38.01510915 59.60517896 -36.79578547 55.37664239 -35.53125 51.06640625 C-35.03771287 49.34832095 -34.54422479 47.63022156 -34.05078125 45.91210938 C-33.27572228 43.23474449 -32.49868172 40.55796775 -31.72021484 37.8815918 C-30.96469754 35.2779519 -30.21646298 32.67229626 -29.46875 30.06640625 C-29.23643677 29.27657852 -29.00412354 28.48675079 -28.76477051 27.67298889 C-27.36305372 22.77748974 -26.51035978 18.06863672 -26 13 C-26.99 13 -27.98 13 -29 13 C-28.76953125 10.62890625 -28.76953125 10.62890625 -28 8 C-26.13671875 6.77734375 -26.13671875 6.77734375 -23.6875 5.9375 C-22.78902344 5.62167969 -21.89054687 5.30585938 -20.96484375 4.98046875 C-19.98644531 4.65691406 -19.00804687 4.33335938 -18 4 C-16.97003906 3.62488281 -15.94007813 3.24976563 -14.87890625 2.86328125 C-9.7291236 1.03096158 -5.53078858 -0.35166864 0 0 Z " fill="#FDF5F5" transform="translate(214,24)"/>
<path d="M0 0 C3.3 0 6.6 0 10 0 C10 29.37 10 58.74 10 89 C7.36 89 4.72 89 2 89 C1.34 86.69 0.68 84.38 0 82 C-0.43570313 82.40992187 -0.87140625 82.81984375 -1.3203125 83.2421875 C-7.82773266 89.12985336 -13.14207974 90.4932812 -21.8984375 90.30859375 C-28.30907861 89.67075918 -33.85530159 87.63798635 -38.375 82.9375 C-46.21693999 72.2662237 -46.19854047 59.72760811 -45 47 C-43.58348332 39.44803828 -40.07306163 32.84929968 -34 28 C-28.9995288 25.38501929 -24.64759635 24.48085828 -19.0625 24.5625 C-18.3617334 24.56717285 -17.6609668 24.5718457 -16.93896484 24.57666016 C-10.31202596 24.76626553 -5.75025196 26.24974804 -1 31 C-0.67 20.77 -0.34 10.54 0 0 Z M-27.71875 36.515625 C-34.26238644 43.89325433 -34.90515397 51.33624355 -35 61 C-34.35154506 68.70940878 -32.20788514 74.02683817 -26.4375 79.375 C-20.54913772 82.15858944 -14.66895918 81.92200408 -8.5625 79.8125 C-3.89936275 76.51418341 -1.50429172 73.15727768 -0.31640625 67.49609375 C1.00284286 57.08868411 0.50514883 47.33623057 -4.625 38.0625 C-10.81794982 32.684412 -21.10628012 30.68462883 -27.71875 36.515625 Z " fill="#000000" transform="translate(537,31)"/>
<path d="M0 0 C5.68589345 3.05175072 8.81408516 7.34045896 11.8125 12.9375 C12.9375 17.4375 12.9375 17.4375 12.9375 32.4375 C-0.9225 32.4375 -14.7825 32.4375 -29.0625 32.4375 C-27.42172812 41.81320638 -27.42172812 41.81320638 -23.0625 49.4375 C-16.36773994 53.62172503 -9.6868273 54.45722346 -2.015625 52.765625 C0.06256619 52.22833655 2.13599017 51.67211933 4.203125 51.09375 C6.9375 50.4375 6.9375 50.4375 10.9375 50.4375 C10.9375 53.4075 10.9375 56.3775 10.9375 59.4375 C0.11997338 63.6545019 -12.80269295 66.11559811 -24.00390625 61.60546875 C-31.00639341 57.63252063 -36.47983126 52.13938714 -39.0625 44.4375 C-41.85755948 33.6727439 -41.35018115 19.97099585 -35.80859375 10.234375 C-27.90547351 -1.3941943 -13.06961694 -5.22784677 0 0 Z M-23.625 10.796875 C-27.40058426 15.15677587 -29.0625 18.71415279 -29.0625 24.4375 C-18.8325 24.4375 -8.6025 24.4375 1.9375 24.4375 C1.35706337 15.72660705 1.35706337 15.72660705 -3.0625 9.4375 C-10.02995228 5.72901733 -17.37371218 5.3582546 -23.625 10.796875 Z " fill="#000000" transform="translate(603.0625,57.5625)"/>
<path d="M0 0 C0.74757568 -0.01836914 1.49515137 -0.03673828 2.26538086 -0.05566406 C7.88245956 0.00624577 12.23664969 1.18406524 16.8125 4.5 C22.39969478 10.55067866 22.48651366 16.76713446 22.30078125 24.65625 C22.29370651 25.79912476 22.28663177 26.94199951 22.27934265 28.11950684 C22.25149621 31.74702159 22.18877166 35.37295677 22.125 39 C22.09990472 41.46872761 22.07709372 43.93747957 22.05664062 46.40625 C22.00170141 52.43803315 21.91817166 58.46890369 21.8125 64.5 C19.1725 64.5 16.5325 64.5 13.8125 64.5 C13.1525 62.19 12.4925 59.88 11.8125 57.5 C11.15894531 58.11488281 11.15894531 58.11488281 10.4921875 58.7421875 C9.89664063 59.28101563 9.30109375 59.81984375 8.6875 60.375 C8.10742188 60.90867188 7.52734375 61.44234375 6.9296875 61.9921875 C0.61974025 66.48598757 -6.78121764 66.0704105 -14.1875 65.5 C-20.36854315 64.32500937 -23.70941427 61.55903378 -27.1875 56.5 C-28.28861689 53.19664934 -28.38976528 50.60167863 -28.4375 47.125 C-28.46328125 46.00351563 -28.4890625 44.88203125 -28.515625 43.7265625 C-28.01121012 38.76648281 -26.00494177 36.2984315 -22.5 32.875 C-14.89198665 26.87165448 -5.63989381 26.33474058 3.6875 26.4375 C4.47125 26.44201172 5.255 26.44652344 6.0625 26.45117188 C7.97920014 26.46285907 9.89586048 26.48079092 11.8125 26.5 C11.64312851 18.31291374 11.64312851 18.31291374 7.8125 11.5 C0.42203635 8.26569561 -6.84987165 9.83878063 -14.125 12.625 C-14.805625 12.91375 -15.48625 13.2025 -16.1875 13.5 C-17.1775 13.5 -18.1675 13.5 -19.1875 13.5 C-21.24024343 9.15301391 -21.24024343 9.15301391 -21.0234375 6.46875 C-20.1875 4.5 -20.1875 4.5 -18.31640625 3.234375 C-12.1826711 0.88170946 -6.5138004 0.088614 0 0 Z M-15.6875 39.625 C-17.76986637 43.61620222 -18.0292043 47.08517843 -17.1875 51.5 C-15.31129387 54.00160818 -13.94858697 55.11945652 -11.1875 56.5 C-4.04852291 57.22218508 1.07485486 56.94960235 6.8125 52.5 C10.49297258 47.75412746 11.95235399 44.2687574 11.875 38.3125 C11.86597656 37.41144531 11.85695313 36.51039062 11.84765625 35.58203125 C11.83605469 34.89496094 11.82445312 34.20789063 11.8125 33.5 C-2.89751041 33.30380224 -2.89751041 33.30380224 -15.6875 39.625 Z " fill="#000000" transform="translate(409.1875,55.5)"/>
<path d="M0 0 C0.7022168 0.00684814 1.40443359 0.01369629 2.12792969 0.02075195 C9.18892456 0.23966575 13.44748635 1.7536702 18.4375 6.875 C21.1206648 11.10614449 22.31495106 14.57841528 22.28955078 19.5949707 C22.28939972 20.59563065 22.28924866 21.59629059 22.28909302 22.62727356 C22.27877045 23.6951561 22.26844788 24.76303864 22.2578125 25.86328125 C22.2549826 26.96600876 22.25215271 28.06873627 22.24923706 29.20487976 C22.23805981 32.72003114 22.21295937 36.23492589 22.1875 39.75 C22.17746704 42.13606402 22.16834174 44.52213205 22.16015625 46.90820312 C22.13812845 52.75140066 22.10361513 58.59440685 22.0625 64.4375 C18.7625 64.4375 15.4625 64.4375 12.0625 64.4375 C12.04791748 63.11097412 12.03333496 61.78444824 12.01831055 60.41772461 C11.96015878 55.4768636 11.88292666 50.53645028 11.80004883 45.59594727 C11.76687883 43.46125578 11.73882242 41.32647827 11.71606445 39.19165039 C11.68237283 36.11567669 11.63004897 33.04048574 11.57421875 29.96484375 C11.56782883 29.01665268 11.5614389 28.06846161 11.55485535 27.09153748 C11.43126601 21.46965331 10.74448457 17.41228918 8.0625 12.4375 C3.52133712 8.84819659 -3.49520215 9.8892088 -8.9375 10.4375 C-13.50643694 12.56441892 -15.78367435 14.90313021 -17.9375 19.4375 C-18.7632188 22.22130194 -19.08021006 24.75722277 -19.14282227 27.65527344 C-19.16276749 28.47582214 -19.18271271 29.29637085 -19.20326233 30.14178467 C-19.22833107 31.45605438 -19.22833107 31.45605438 -19.25390625 32.796875 C-19.27468735 33.70125305 -19.29546844 34.6056311 -19.31687927 35.53741455 C-19.3821594 38.42070055 -19.44115952 41.3040761 -19.5 44.1875 C-19.54320571 46.14454044 -19.58682065 48.10157188 -19.63085938 50.05859375 C-19.73781872 54.8514712 -19.83914673 59.64443854 -19.9375 64.4375 C-23.5675 64.4375 -27.1975 64.4375 -30.9375 64.4375 C-30.9375 43.6475 -30.9375 22.8575 -30.9375 1.4375 C-27.9675 1.4375 -24.9975 1.4375 -21.9375 1.4375 C-21.2775 3.4175 -20.6175 5.3975 -19.9375 7.4375 C-19.256875 6.839375 -18.57625 6.24125 -17.875 5.625 C-12.14358139 1.35692231 -7.10054574 -0.10632106 0 0 Z " fill="#000000" transform="translate(661.9375,55.5625)"/>
<path d="M0 0 C-0.33 2.97 -0.66 5.94 -1 9 C-5 10 -5 10 -8.25 9.8125 C-12.96250638 10.04812532 -16.15544068 11.29456937 -20 14 C-25.44994864 20.45388654 -26.29264616 27.65012353 -26.4140625 35.77734375 C-26.43342865 36.58869278 -26.4527948 37.40004181 -26.4727478 38.23597717 C-26.53206966 40.80304772 -26.57873736 43.37016429 -26.625 45.9375 C-26.66322352 47.68816956 -26.70227774 49.43882119 -26.7421875 51.18945312 C-26.83773156 55.45948816 -26.92193537 59.7296111 -27 64 C-30.3 64 -33.6 64 -37 64 C-37 43.21 -37 22.42 -37 1 C-34.03 1 -31.06 1 -28 1 C-28 3.97 -28 6.94 -28 10 C-27.34 9.278125 -26.68 8.55625 -26 7.8125 C-17.8443909 -0.07275741 -10.99018483 -0.64395614 0 0 Z " fill="#000000" transform="translate(487,56)"/>
<path d="M0 0 C2.64 0 5.28 0 8 0 C12.2193289 9.9163951 16.12355179 19.94581156 20 30 C20.22139648 29.44650879 20.44279297 28.89301758 20.67089844 28.32275391 C24.44726562 18.88183594 28.22363281 9.44091797 32 0 C34.97 0 37.94 0 41 0 C41 13.53 41 27.06 41 41 C39.02 41 37.04 41 35 41 C34.67 31.43 34.34 21.86 34 12 C30.37 21.57 26.74 31.14 23 41 C21.02 41 19.04 41 17 41 C13.37 31.43 9.74 21.86 6 12 C5.67 21.57 5.34 31.14 5 41 C3.35 41 1.7 41 0 41 C0 27.47 0 13.94 0 0 Z " fill="#000000" transform="translate(451,135)"/>
<path d="M0 0 C1.98 0 3.96 0 6 0 C7.98 6.6 9.96 13.2 12 20 C13.93297598 13.79317274 13.93297598 13.79317274 15.85913086 7.58422852 C16.10026611 6.81522217 16.34140137 6.04621582 16.58984375 5.25390625 C16.83597412 4.46314697 17.08210449 3.6723877 17.33569336 2.85766602 C18 1 18 1 19 0 C20.99958364 -0.04080783 23.00045254 -0.04254356 25 0 C27.5390378 6.60149829 29.79377637 13.28053718 32 20 C32.14622803 19.42967041 32.29245605 18.85934082 32.44311523 18.27172852 C33.10434115 15.70105211 33.77084771 13.13177426 34.4375 10.5625 C34.66759766 9.66466797 34.89769531 8.76683594 35.13476562 7.84179688 C35.35712891 6.98779297 35.57949219 6.13378906 35.80859375 5.25390625 C36.01282959 4.46314697 36.21706543 3.6723877 36.42749023 2.85766602 C37 1 37 1 38 0 C39.99958364 -0.04080783 42.00045254 -0.04254356 44 0 C41.43980534 10.36334114 38.7837255 20.69429284 36 31 C33.69 31 31.38 31 29 31 C26.05486967 24.10809602 23.86174789 17.26081675 22 10 C19.69 16.93 17.38 23.86 15 31 C12.69 31 10.38 31 8 31 C6.85559209 27.068761 5.71640793 23.13604996 4.58203125 19.2019043 C4.19544252 17.86392458 3.80743188 16.52635484 3.41796875 15.18920898 C2.85823398 13.2665486 2.30404252 11.34227716 1.75 9.41796875 C1.41484375 8.26063232 1.0796875 7.1032959 0.734375 5.91088867 C0 3 0 3 0 0 Z " fill="#000000" transform="translate(297,145)"/>
<path d="M0 0 C0.33 0.33 0.66 0.66 1 1 C1.33 0.34 1.66 -0.32 2 -1 C3.65 -1 5.3 -1 7 -1 C7.07431132 4.17778402 7.12867808 9.35525569 7.16479492 14.53344727 C7.17985553 16.29391896 7.20030826 18.0543533 7.22631836 19.81469727 C7.26282229 22.34921503 7.27975354 24.88323552 7.29296875 27.41796875 C7.30845261 28.20149216 7.32393646 28.98501556 7.33988953 29.7922821 C7.34129756 34.39302596 6.84594586 37.33717846 4 41 C0.48605131 43.66547816 -3.29101171 43.23342998 -7.5625 43.1875 C-8.23474609 43.18685547 -8.90699219 43.18621094 -9.59960938 43.18554688 C-12.66413171 43.1581579 -15.0727161 42.9757613 -18 42 C-18 40.02 -18 38.04 -18 36 C-17.38125 36.165 -16.7625 36.33 -16.125 36.5 C-13.32711276 36.94766196 -10.70270674 37.16731852 -7.875 37.25 C-6.60269531 37.28867188 -6.60269531 37.28867188 -5.3046875 37.328125 C-2.94005081 37.18042538 -2.94005081 37.18042538 -1.20703125 35.65234375 C0.44361108 33.39272659 0.22115892 31.72762668 0 29 C-1.175625 29.37125 -2.35125 29.7425 -3.5625 30.125 C-7.93088974 31.19970119 -10.8161376 30.85055452 -15 29 C-20.34999408 23.5092166 -20.28409132 18.51851201 -20.21875 11.17578125 C-19.88744767 6.36598138 -18.55817823 3.50623895 -15.125 0.1875 C-9.67983635 -2.85538557 -5.72014257 -1.71604277 0 0 Z M-11.875 5.3125 C-14.80201618 9.70302426 -14.58992187 14.93313683 -14 20 C-12.28352672 23.00382824 -11.1572314 24.44004932 -8.0625 25.9375 C-5.25184487 26.02267137 -3.47668896 25.30352051 -1 24 C1.35490728 20.46763908 1.32743705 18.75279632 1.375 14.5625 C1.40335938 13.42941406 1.43171875 12.29632813 1.4609375 11.12890625 C1.24526037 7.92805444 1.24526037 7.92805444 -0.80078125 5.6171875 C-4.30326058 3.04165208 -8.24558416 2.77190891 -11.875 5.3125 Z " fill="#000000" transform="translate(617,146)"/>
<path d="M0 0 C1.98 0 3.96 0 6 0 C6 14.52 6 29.04 6 44 C4.35 44 2.7 44 1 44 C0.67 43.34 0.34 42.68 0 42 C-0.99 42.66 -1.98 43.32 -3 44 C-8.66005498 45.41501375 -11.88445891 44.75452212 -17 42 C-20.19827498 39.90457846 -20.91091003 36.98192657 -21.71484375 33.3203125 C-22.36776019 28.00754036 -21.87236218 22.95242965 -19.6875 18.0625 C-16.89173301 14.64545145 -15.01345019 13.26770382 -10.6875 12.125 C-6.16625982 11.97173762 -3.98279797 12.96796022 0 15 C0 10.05 0 5.1 0 0 Z M-12.8125 19 C-15.58923632 23.67660854 -16.46129446 28.11926537 -15.3125 33.375 C-14.33005326 37.20860753 -14.33005326 37.20860753 -11 39 C-6.26766878 39.53663581 -6.26766878 39.53663581 -2.125 37.625 C0.80380404 33.39450527 0.46344192 28.99574678 0 24 C-1.16432069 21.51949071 -2.09425952 19.90574048 -4 18 C-8.57155093 17.57851351 -8.57155093 17.57851351 -12.8125 19 Z " fill="#000000" transform="translate(421,132)"/>
<path d="M0 0 C19.95643154 0 19.95643154 0 24.91015625 4.8828125 C26.91965773 8.78657523 26.61218738 12.73487033 26 17 C23.95150341 21.09699318 22.27272195 23.38289343 18 25 C13.98216016 25.26022279 10.0314117 25.08763938 6 25 C6 30.28 6 35.56 6 41 C4.02 41 2.04 41 0 41 C0 27.47 0 13.94 0 0 Z M6 5 C6 9.95 6 14.9 6 20 C12.27631221 20.44821352 12.27631221 20.44821352 18.0625 18.4375 C20.30094972 16.04456106 20.30094972 16.04456106 20.5 12.4375 C20.26708053 9.11004467 20.26708053 9.11004467 18.75 7.125 C14.51033893 4.3995036 11.24667027 5 6 5 Z " fill="#000000" transform="translate(183,135)"/>
<path d="M0 0 C-0.90490061 11.76370791 -4.91581454 23.29395412 -13 32 C-13.66 32 -14.32 32 -15 32 C-15.33 32.99 -15.66 33.98 -16 35 C-20.93791838 37.34551123 -25.66444505 37.2134222 -31 37 C-30.55297819 29.40062931 -27.94502412 22.9704713 -25 16 C-24.50113281 14.7934375 -24.50113281 14.7934375 -23.9921875 13.5625 C-21.27289014 7.52977307 -17.48167143 4.33274947 -11.625 1.1875 C-7.40918639 -0.19354239 -4.40084374 -0.23162335 0 0 Z M-18 12 C-20.57732059 16.96217893 -22.27242664 21.35975956 -22 27 C-18.77545785 26.7068598 -16.54662222 26.38585098 -13.875 24.5 C-10.3113522 19.7484696 -7.21334131 14.09660485 -8 8 C-12.73029552 7.4593948 -14.77688498 8.52895305 -18 12 Z " fill="#E3101B" transform="translate(145,85)"/>
<path d="M0 0 C2.86415689 2.72094905 4.53676761 5.06252466 5 9 C5 11.31 5 13.62 5 16 C-1.93 16 -8.86 16 -16 16 C-13.5797509 21.63106761 -13.5797509 21.63106761 -11 24 C-8.69686893 24.28147193 -8.69686893 24.28147193 -6.125 24.1875 C-5.26132812 24.18105469 -4.39765625 24.17460937 -3.5078125 24.16796875 C-1.20807774 24.01393667 0.79283489 23.64161776 3 23 C3 24.98 3 26.96 3 29 C-3.37238385 30.95841584 -8.71039889 31.58911735 -15 29 C-19.31701116 25.60150186 -21.57146775 22.43485084 -22.25390625 16.96484375 C-22.56398686 11.13332784 -21.30069711 6.82060574 -18 2 C-12.83613703 -3.16386297 -6.41654736 -2.44668348 0 0 Z M-11.8125 4.0625 C-14.54066359 6.08590146 -14.54066359 6.08590146 -15 11 C-10.38 11 -5.76 11 -1 11 C-2.24812837 5.00319945 -2.24812837 5.00319945 -5.8125 3.4375 C-8.99480073 2.74235835 -8.99480073 2.74235835 -11.8125 4.0625 Z " fill="#000000" transform="translate(653,146)"/>
<path d="M0 0 C1.66869141 -0.05994141 1.66869141 -0.05994141 3.37109375 -0.12109375 C6.5625 0.4375 6.5625 0.4375 9.453125 2.1328125 C12.81135395 7.39403786 12.08803947 12.65707119 11.875 18.75 C11.85244141 19.96751953 11.82988281 21.18503906 11.80664062 22.43945312 C11.7478053 25.44005482 11.6656414 28.43814797 11.5625 31.4375 C9.9125 31.4375 8.2625 31.4375 6.5625 31.4375 C6.2325 30.7775 5.9025 30.1175 5.5625 29.4375 C4.5725 30.0975 3.5825 30.7575 2.5625 31.4375 C-2.42966282 32.56780102 -5.7550618 32.565881 -10.4375 30.4375 C-12.47234104 28.81545488 -13.32494036 27.90344455 -13.94140625 25.3515625 C-14.09517827 19.34420209 -14.09517827 19.34420209 -12.23046875 16.7734375 C-7.91884401 13.04033456 -4.19601536 12.29399242 1.3125 12.375 C2.11171875 12.38402344 2.9109375 12.39304688 3.734375 12.40234375 C4.33765625 12.41394531 4.9409375 12.42554688 5.5625 12.4375 C4.8670656 9.43365946 4.8670656 9.43365946 3.5625 6.4375 C0.53645466 5.18534331 -1.59323509 5.49829161 -4.6875 6.375 C-5.925 6.725625 -7.1625 7.07625 -8.4375 7.4375 C-9.0975 5.7875 -9.7575 4.1375 -10.4375 2.4375 C-6.95751668 0.31887935 -4.03994717 0.07939781 0 0 Z M-5.4375 18.4375 C-6.0975 19.0975 -6.7575 19.7575 -7.4375 20.4375 C-7.11551034 23.53676819 -7.11551034 23.53676819 -6.4375 26.4375 C-2.97646434 27.55724683 -1.63306417 27.51647784 1.8125 26.125 C4.6396545 24.72355821 4.6396545 24.72355821 5.5625 22.4375 C5.602492 20.43789988 5.60596799 18.43702758 5.5625 16.4375 C1.44056318 16.4375 -1.54629026 17.14043009 -5.4375 18.4375 Z " fill="#000000" transform="translate(227.4375,144.5625)"/>
<path d="M0 0 C1.66869141 -0.05994141 1.66869141 -0.05994141 3.37109375 -0.12109375 C6.5625 0.4375 6.5625 0.4375 9.453125 2.1328125 C12.81135395 7.39403786 12.08803947 12.65707119 11.875 18.75 C11.85244141 19.96751953 11.82988281 21.18503906 11.80664062 22.43945312 C11.7478053 25.44005482 11.6656414 28.43814797 11.5625 31.4375 C9.9125 31.4375 8.2625 31.4375 6.5625 31.4375 C6.2325 30.7775 5.9025 30.1175 5.5625 29.4375 C4.5725 30.0975 3.5825 30.7575 2.5625 31.4375 C-2.42966282 32.56780102 -5.7550618 32.565881 -10.4375 30.4375 C-12.47234104 28.81545488 -13.32494036 27.90344455 -13.94140625 25.3515625 C-14.09517827 19.34420209 -14.09517827 19.34420209 -12.23046875 16.7734375 C-7.91884401 13.04033456 -4.19601536 12.29399242 1.3125 12.375 C2.11171875 12.38402344 2.9109375 12.39304688 3.734375 12.40234375 C4.33765625 12.41394531 4.9409375 12.42554688 5.5625 12.4375 C4.8670656 9.43365946 4.8670656 9.43365946 3.5625 6.4375 C0.53645466 5.18534331 -1.59323509 5.49829161 -4.6875 6.375 C-5.925 6.725625 -7.1625 7.07625 -8.4375 7.4375 C-9.0975 5.7875 -9.7575 4.1375 -10.4375 2.4375 C-6.95751668 0.31887935 -4.03994717 0.07939781 0 0 Z M-5.4375 18.4375 C-6.0975 19.0975 -6.7575 19.7575 -7.4375 20.4375 C-7.11551034 23.53676819 -7.11551034 23.53676819 -6.4375 26.4375 C-2.97646434 27.55724683 -1.63306417 27.51647784 1.8125 26.125 C4.6396545 24.72355821 4.6396545 24.72355821 5.5625 22.4375 C5.602492 20.43789988 5.60596799 18.43702758 5.5625 16.4375 C1.44056318 16.4375 -1.54629026 17.14043009 -5.4375 18.4375 Z " fill="#000000" transform="translate(578.4375,144.5625)"/>
<path d="M0 0 C1.1240625 -0.01675781 2.248125 -0.03351563 3.40625 -0.05078125 C6.78116656 0.34551577 8.12809573 0.92381339 10.5 3.3125 C11.5592918 6.49037541 11.61458939 8.73838943 11.59765625 12.07421875 C11.59443359 13.19248047 11.59121094 14.31074219 11.58789062 15.46289062 C11.57951172 16.63013672 11.57113281 17.79738281 11.5625 19 C11.55798828 20.17884766 11.55347656 21.35769531 11.54882812 22.57226562 C11.53703273 25.48572789 11.5205727 28.39908863 11.5 31.3125 C9.85 31.3125 8.2 31.3125 6.5 31.3125 C6.17 30.6525 5.84 29.9925 5.5 29.3125 C4.51 29.9725 3.52 30.6325 2.5 31.3125 C-2.49216282 32.44280102 -5.8175618 32.440881 -10.5 30.3125 C-12.57410906 28.67193392 -13.39848029 27.80912344 -13.93359375 25.19140625 C-13.94407065 18.97860597 -13.94407065 18.97860597 -11.875 15.875 C-6.240322 12.167975 -1.02626431 12.05144943 5.5 12.3125 C4.8045656 9.30865946 4.8045656 9.30865946 3.5 6.3125 C0.35316501 4.98751684 -2.00452394 5.43863098 -5.25 6.25 C-6.04921875 6.44464844 -6.8484375 6.63929688 -7.671875 6.83984375 C-8.27515625 6.99582031 -8.8784375 7.15179688 -9.5 7.3125 C-9.83 5.6625 -10.16 4.0125 -10.5 2.3125 C-6.98774778 0.15177621 -4.08190932 0.01404327 0 0 Z M-5.5 18.3125 C-7.78728734 20.15133881 -7.78728734 20.15133881 -7.625 22.9375 C-7.58375 23.72125 -7.5425 24.505 -7.5 25.3125 C-4.81470658 26.62607916 -4.81470658 26.62607916 -1.5 27.3125 C2.8261628 25.78337921 2.8261628 25.78337921 5.5 22.3125 C5.539992 20.31289988 5.54346799 18.31202758 5.5 16.3125 C1.37806318 16.3125 -1.60879026 17.01543009 -5.5 18.3125 Z " fill="#000000" transform="translate(512.5,144.6875)"/>
<path d="M0 0 C3.4412825 2.93569123 5.85498867 6.27888189 6.23828125 10.828125 C6.48632897 22.26443053 6.48632897 22.26443053 2 27 C-1.31040087 30.31040087 -4.3673536 30.84810995 -9 31 C-13.85507447 30.15528265 -17.11082952 28.95585827 -20.5 25.3125 C-23.33456063 19.05284528 -23.49358233 13.60904139 -21.78515625 7.046875 C-20.51944496 3.74720975 -18.82605487 2.07244023 -16 0 C-10.42891528 -2.46413363 -5.54710165 -2.40997675 0 0 Z M-14.5 5.8125 C-16.72985004 10.55093132 -16.74034562 14.8561403 -16 20 C-14.75621319 23.30853694 -14.75621319 23.30853694 -12 25 C-9.04013631 25.60150147 -7.09645303 25.39320039 -4 25 C-1.32568511 23.18836733 -1.04079641 22.12238923 0 19 C0.52996391 13.55767832 0.49157975 9.46922208 -3 5 C-4.21690541 3.5715968 -4.21690541 3.5715968 -7.8125 3.625 C-10.9852013 3.69904868 -11.83115434 3.87758689 -14.5 5.8125 Z " fill="#000000" transform="translate(366,146)"/>
<path d="M0 0 C2.83019387 2.74175031 3.92973142 5.48234976 4.11352539 9.4519043 C4.10828857 10.39976807 4.10305176 11.34763184 4.09765625 12.32421875 C4.09443359 13.35224609 4.09121094 14.38027344 4.08789062 15.43945312 C4.07951172 16.51130859 4.07113281 17.58316406 4.0625 18.6875 C4.05798828 19.77095703 4.05347656 20.85441406 4.04882812 21.97070312 C4.03703743 24.64719085 4.02058063 27.32356777 4 30 C2.02 30 0.04 30 -2 30 C-2.01981934 29.34926514 -2.03963867 28.69853027 -2.06005859 28.02807617 C-2.15529299 25.08080849 -2.26497818 22.13425115 -2.375 19.1875 C-2.4059375 18.16333984 -2.436875 17.13917969 -2.46875 16.08398438 C-2.50742187 15.10107422 -2.54609375 14.11816406 -2.5859375 13.10546875 C-2.63306885 11.74651489 -2.63306885 11.74651489 -2.68115234 10.36010742 C-2.86027919 7.73474608 -2.86027919 7.73474608 -5 5 C-6.97747122 4.63702064 -6.97747122 4.63702064 -9.125 4.8125 C-10.40375 4.874375 -11.6825 4.93625 -13 5 C-16.24539753 10.30748658 -16.52826559 14.83319149 -16.6875 20.875 C-16.72166016 21.75414062 -16.75582031 22.63328125 -16.79101562 23.5390625 C-16.8729314 25.69227705 -16.93815579 27.84611551 -17 30 C-18.98 30 -20.96 30 -23 30 C-23 19.77 -23 9.54 -23 -1 C-21.35 -1 -19.7 -1 -18 -1 C-17.34 -0.34 -16.68 0.32 -16 1 C-15.030625 0.46375 -14.06125 -0.0725 -13.0625 -0.625 C-8.45940081 -2.60311391 -4.55226918 -1.8755349 0 0 Z " fill="#000000" transform="translate(555,146)"/>
<path d="M0 0 C-0.33 1.65 -0.66 3.3 -1 5 C-1.66386719 4.91621094 -2.32773437 4.83242187 -3.01171875 4.74609375 C-9.54720848 3.94574958 -9.54720848 3.94574958 -16 5 C-14.96371738 7.87720821 -14.26905965 8.85308489 -11.5390625 10.34375 C-10.57742188 10.7253125 -9.61578125 11.106875 -8.625 11.5 C-4.57190794 13.11686692 -1.81039098 14.60792345 1 18 C1.6183357 21.63272223 1.2716213 23.4567574 -0.375 26.75 C-4.2228947 30.04819546 -7.99478896 30.7450038 -13 31 C-16.10328426 30.61151817 -19.01841934 29.93624514 -22 29 C-22 27.02 -22 25.04 -22 23 C-21.18015625 23.16757813 -20.3603125 23.33515625 -19.515625 23.5078125 C-18.43796875 23.71148437 -17.3603125 23.91515625 -16.25 24.125 C-15.18265625 24.33382812 -14.1153125 24.54265625 -13.015625 24.7578125 C-9.86311649 25.01099324 -8.60040934 24.70415175 -6 23 C-6.04984919 21.07793687 -6.04984919 21.07793687 -7 19 C-9.66197442 17.33836287 -9.66197442 17.33836287 -12.875 16 C-19.83250643 12.91522607 -19.83250643 12.91522607 -22 9 C-21.87463606 5.92858338 -21.54562244 3.84874602 -19.875 1.25 C-14.13108171 -2.57927886 -6.21219006 -3.10609503 0 0 Z " fill="#000000" transform="translate(294,146)"/>
<path d="M0 0 C-0.33 1.65 -0.66 3.3 -1 5 C-1.88751953 4.85691406 -1.88751953 4.85691406 -2.79296875 4.7109375 C-7.44380225 4.05845515 -10.72314374 3.65462721 -15 6 C-15 6.99 -15 7.98 -15 9 C-14.41992188 9.17015625 -13.83984375 9.3403125 -13.2421875 9.515625 C-8.20382972 11.07867989 -4.17951945 12.76087243 0 16 C1.3899408 18.7798816 1.18488204 20.9186326 1 24 C0.07900498 26.53036261 -0.50108103 27.70782124 -2.84765625 29.08203125 C-8.9291278 31.08773703 -15.05742077 31.97128961 -21 29 C-21 27.02 -21 25.04 -21 23 C-20.26394531 23.15597656 -19.52789062 23.31195313 -18.76953125 23.47265625 C-17.79371094 23.66730469 -16.81789062 23.86195313 -15.8125 24.0625 C-14.84957031 24.25972656 -13.88664063 24.45695312 -12.89453125 24.66015625 C-9.96389138 25.00423947 -7.83692932 24.74164697 -5 24 C-5.95280362 20.49249169 -6.61963636 19.23934814 -9.75 17.26953125 C-11.35875 16.54830078 -11.35875 16.54830078 -13 15.8125 C-18.85430464 13.14569536 -18.85430464 13.14569536 -21 11 C-21.55692056 3.98280098 -21.55692056 3.98280098 -19.9375 1.125 C-13.92412335 -2.36663805 -6.34074555 -3.17037277 0 0 Z " fill="#000000" transform="translate(267,146)"/>
<path d="M0 0 C-0.33 1.65 -0.66 3.3 -1 5 C-2.98567708 5.32552083 -4.97135417 5.65104167 -6.95703125 5.9765625 C-10.21074191 7.60652845 -10.76582715 9.62860101 -12 13 C-12.46617762 16.12349513 -12.59945893 19.22061417 -12.6875 22.375 C-12.72166016 23.20644531 -12.75582031 24.03789062 -12.79101562 24.89453125 C-12.87287146 26.92923351 -12.93812701 28.96459208 -13 31 C-14.98 31 -16.96 31 -19 31 C-19 20.77 -19 10.54 -19 0 C-17.02 0 -15.04 0 -13 0 C-12.67 0.99 -12.34 1.98 -12 3 C-11.5875 2.525625 -11.175 2.05125 -10.75 1.5625 C-7.27163619 -1.54318197 -4.34440287 -1.08610072 0 0 Z " fill="#000000" transform="translate(683,145)"/>
<path d="M0 0 C-0.33 1.65 -0.66 3.3 -1 5 C-3.97851562 5.5859375 -3.97851562 5.5859375 -6.95703125 6.171875 C-9.6551043 7.26554897 -10.46535182 8.54541667 -12 11 C-12.49651796 13.30746465 -12.49651796 13.30746465 -12.51171875 15.765625 C-12.54716797 16.65507812 -12.58261719 17.54453125 -12.61914062 18.4609375 C-12.64169922 19.38132813 -12.66425781 20.30171875 -12.6875 21.25 C-12.72166016 22.18585938 -12.75582031 23.12171875 -12.79101562 24.0859375 C-12.87332162 26.39050533 -12.9425263 28.69470119 -13 31 C-14.98 31 -16.96 31 -19 31 C-19 20.77 -19 10.54 -19 0 C-17.35 0 -15.7 0 -14 0 C-13.67 0.99 -13.34 1.98 -13 3 C-12.401875 2.525625 -11.80375 2.05125 -11.1875 1.5625 C-7.18365429 -1.29738979 -4.65398661 -0.93079732 0 0 Z " fill="#000000" transform="translate(398,145)"/>
<path d="M0 0 C0.66 0.33 1.32 0.66 2 1 C2.99363033 4.89808822 3.18935052 7.3846108 2 11.25 C-0.62105238 14.85394702 -2.70801099 15.89000284 -7 17 C-9.9375 16.125 -9.9375 16.125 -12 14 C-12.74539887 9.61042885 -12.29172303 7.52510145 -10.125 3.625 C-6.91071049 -0.34559292 -4.96508324 -0.20687847 0 0 Z " fill="#E30613" transform="translate(279,78)"/>
<path d="M0 0 C-0.45822468 3.46941546 -0.89131683 6.67395049 -2 10 C-0.80761719 9.566875 0.38476562 9.13375 1.61328125 8.6875 C3.1795982 8.12475139 4.74600939 7.56226502 6.3125 7 C7.09818359 6.71382812 7.88386719 6.42765625 8.69335938 6.1328125 C9.45068359 5.86210937 10.20800781 5.59140625 10.98828125 5.3125 C11.68477783 5.06113281 12.38127441 4.80976563 13.09887695 4.55078125 C15 4 15 4 18 4 C17.67 5.32 17.34 6.64 17 8 C16.67 7.34 16.34 6.68 16 6 C14.96359375 6.3609375 13.9271875 6.721875 12.859375 7.09375 C11.48969264 7.5628193 10.11989486 8.03155166 8.75 8.5 C8.06808594 8.73847656 7.38617188 8.97695313 6.68359375 9.22265625 C3.23586997 10.39421287 0.68297096 11 -3 11 C-2.67 8.03 -2.34 5.06 -2 2 C-4.64 2.66 -7.28 3.32 -10 4 C-9 2 -9 2 -6.125 0.875 C-3 0 -3 0 0 0 Z " fill="#EC8E8F" transform="translate(253,14)"/>
<path d="M0 0 C0.33 1.32 0.66 2.64 1 4 C1.99 4 2.98 4 4 4 C3.50269348 8.97306516 2.44697666 12.63799813 0 17 C-0.66 17 -1.32 17 -2 17 C-0.68938409 12.76570244 0.94356259 8.92592596 3 5 C1.68 5.33 0.36 5.66 -1 6 C-0.67 4.02 -0.34 2.04 0 0 Z " fill="#F0A8A9" transform="translate(76,76)"/>
<path d="M0 0 C0.66 0.33 1.32 0.66 2 1 C0.56877218 2.48523642 -0.87020889 3.96300462 -2.3125 5.4375 C-3.11300781 6.26121094 -3.91351563 7.08492188 -4.73828125 7.93359375 C-7 10 -7 10 -10 11 C-8.55218207 7.55571735 -6.72305391 5.63869038 -3.875 3.25 C-3.15054688 2.63640625 -2.42609375 2.0228125 -1.6796875 1.390625 C-0.84824219 0.70226562 -0.84824219 0.70226562 0 0 Z " fill="#F2B8B9" transform="translate(114,77)"/>
<path d="M0 0 C-0.75 6.75 -0.75 6.75 -3 9 C-2.67 6.69 -2.34 4.38 -2 2 C-4.64 2.66 -7.28 3.32 -10 4 C-9 2 -9 2 -6.125 0.875 C-3 0 -3 0 0 0 Z " fill="#F0AEAF" transform="translate(253,14)"/>
<path d="M0 0 C0.66 0 1.32 0 2 0 C2 0.66 2 1.32 2 2 C1.34 2 0.68 2 0 2 C0 1.34 0 0.68 0 0 Z " fill="#E30613" transform="translate(195,131)"/>
<path d="M0 0 C0.66 0 1.32 0 2 0 C2 0.66 2 1.32 2 2 C1.34 2 0.68 2 0 2 C0 1.34 0 0.68 0 0 Z " fill="#E30613" transform="translate(265,101)"/>
<path d="M0 0 C0.66 0 1.32 0 2 0 C2 0.66 2 1.32 2 2 C1.34 2 0.68 2 0 2 C0 1.34 0 0.68 0 0 Z " fill="#E30613" transform="translate(154,41)"/>
<path d="M0 0 C0.33 0.66 0.66 1.32 1 2 C0.34 1.67 -0.32 1.34 -1 1 C-0.67 0.67 -0.34 0.34 0 0 Z " fill="#E30B16" transform="translate(278,102)"/>
<path d="" fill="#E30613" transform="translate(0,0)"/>
</svg>
